<?xml version="1.0" encoding="utf-8"?>
<!-- Generator: Adobe Illustrator 26.0.2, SVG Export Plug-In . SVG Version: 6.00 Build 0)  -->
<svg version="1.1" id="圖層_1" xmlns="http://www.w3.org/2000/svg" xmlns:xlink="http://www.w3.org/1999/xlink" x="0px" y="0px"
	 viewBox="0 0 48 48" style="enable-background:new 0 0 48 48;" xml:space="preserve">
<style type="text/css">
	.st0{fill:none;}
</style>
<g>
	<g>
		<rect y="0" class="st0" width="48" height="48"/>
	</g>
	<g>
		<path d="M9.7,28.7c0,1-0.8,1.9-1.9,1.9l0,0c-1,0-1.9-0.8-1.9-1.9v-9.5c0-1,0.8-1.9,1.9-1.9l0,0c1,0,1.9,0.8,1.9,1.9V28.7z"/>
		<path d="M42,37.4c0,1.5-1.2,2.7-2.7,2.7l0,0c-1.5,0-2.7-1.2-2.7-2.7V10.6c0-1.5,1.2-2.7,2.7-2.7l0,0c1.5,0,2.7,1.2,2.7,2.7V37.4z"
			/>
		<path d="M8.2,19.3V24v4.7l31,9.9V24V9.4L8.2,19.3z M33.1,21.8H12.7v-1.7l20.4-5.8V21.8z"/>
		<g>
			<path d="M22.3,38.2c-0.4,0-0.9-0.1-1.3-0.2l-5.4-1.8c-2.2-0.7-3.4-3.1-2.7-5.3l0.6-1.8c0.6-1.7,2.2-2.9,4-2.9
				c0.4,0,0.9,0.1,1.3,0.2l5.4,1.8c1.1,0.3,1.9,1.1,2.4,2.1c0.5,1,0.6,2.1,0.2,3.2l-0.6,1.8C25.7,37,24.1,38.2,22.3,38.2z
				 M17.5,29.1c-0.6,0-1.1,0.4-1.3,1l-0.6,1.8c-0.2,0.7,0.2,1.5,0.9,1.8l5.4,1.8c0.1,0,0.3,0.1,0.4,0.1c0.6,0,1.1-0.4,1.3-1l0.6-1.8
				c0.1-0.4,0.1-0.7-0.1-1.1s-0.5-0.6-0.8-0.7l-5.4-1.8C17.8,29.1,17.6,29.1,17.5,29.1z"/>
		</g>
	</g>
</g>
</svg>
