<?xml version="1.0" encoding="utf-8"?>
<!-- Generator: Adobe Illustrator 25.2.0, SVG Export Plug-In . SVG Version: 6.00 Build 0)  -->
<svg version="1.1" id="圖層_1" xmlns="http://www.w3.org/2000/svg" xmlns:xlink="http://www.w3.org/1999/xlink" x="0px" y="0px"
	 width="100px" height="100px" viewBox="0 0 100 100" style="enable-background:new 0 0 100 100;" xml:space="preserve">
<style type="text/css">
	.st0{fill:none;}
	.st1{fill:#9E6B2D;stroke:#000000;stroke-miterlimit:10;}
	.st2{fill:none;stroke:#FFFFFF;stroke-width:2;stroke-linecap:round;stroke-linejoin:round;}
	.st3{fill:#9E6B2D;}
</style>
<g>
	<rect class="st0" width="100" height="100"/>
	<g>
		<rect x="12" y="12" class="st0" width="76" height="76"/>
		<path class="st1" d="M64.1,69.5"/>
		<path class="st2" d="M80,49.6v-6.9c0-2.4-1.9-4.3-4.3-4.3h-4.8H50c-0.4,0-0.9,0-1.3-0.1C47,38,45.5,37,44.5,35.6l-4-5.2
			c-1.3-1.1-2.9-1.8-4.6-1.8H22.3c-2.4,0-4.3,1.9-4.3,4.3V75c0,2.4,1.9,4.3,4.3,4.3h28"/>
		<g>
			<path id="Vector_8_9_" class="st2" d="M67.4,38.3V18.7H30.6v9.8"/>
			<path id="Vector_9_9_" class="st2" d="M46.4,30.3h17v-5.7h-17V30.3z"/>
		</g>
		<circle class="st2" cx="65.3" cy="64.7" r="16.7"/>
		<path class="st2" d="M72.1,62.3L68,66.4V53.9h-5.3v12.5l-4.1-4.1l-3.8,3.8l8.6,8.6c1,1,2.7,1,3.8,0l8.6-8.6L72.1,62.3z"/>
		<path class="st3" d="M65.3,73.5c-0.1,0-0.3,0-0.5-0.2l-7.2-7.2l0.9-0.9l6.1,6.1V55.9H66v15.4l6.1-6.1l0.9,0.9l-7.2,7.2
			C65.6,73.5,65.4,73.5,65.3,73.5z"/>
		<g>
			<path id="Vector_10_9_" class="st2" d="M25.1,72.6h19.4"/>
			<path id="Vector_11_9_" class="st2" d="M25.1,66.3h15.7"/>
			<path id="Vector_12_11_" class="st2" d="M25.1,60.1H38"/>
		</g>
	</g>
</g>
</svg>
