<?xml version="1.0" encoding="utf-8"?>
<!-- Generator: Adobe Illustrator 25.2.0, SVG Export Plug-In . SVG Version: 6.00 Build 0)  -->
<svg version="1.1" id="圖層_1" xmlns="http://www.w3.org/2000/svg" xmlns:xlink="http://www.w3.org/1999/xlink" x="0px" y="0px"
	 width="500px" height="50px" viewBox="0 0 500 50" style="enable-background:new 0 0 500 50;" xml:space="preserve">
<style type="text/css">
	.st0{fill:none;}
	.st1{fill:#3E3A39;}
	.st2{fill:none;stroke:#000000;stroke-width:0.5;stroke-miterlimit:10;}
	.st3{stroke:#3E3A39;stroke-width:0.35;stroke-miterlimit:10;}
</style>
<g>
	<rect class="st0" width="500" height="50"/>
	<g>
		<g>
			<path class="st1" d="M80.3,25.1c-0.2-0.9-0.2-1.9-0.4-2.8c-0.2-1.1-0.4-1.9-0.4-3c-0.2-1.6,0.2-3.3,0.2-4.9c0-0.2,0-0.5-0.2-0.5
				c-0.2-0.2-0.2-0.2-0.4-0.4c-0.2-0.2-0.2-0.2,0-0.4l0.2-0.2c0.4-0.5,0.2-0.9-0.2-1.6c0-0.4-0.4-0.7-0.7-0.9s-0.5-0.2-0.9-0.4
				c-0.2,0-0.5,0-0.9-0.2C76,9.7,75.3,9.4,75,9.2c-0.2,0-0.2-0.2-0.4-0.2c-0.2-0.2-0.7-0.2-1.2-0.2c-2.1,0-4.2,0.7-6.3,1.2
				c-0.9,0.4-1.9,0.5-3,0.5c-0.5,0-1.1-0.4-1.8-0.2s-0.9,0.5-1.1,1.1l0,0c-0.5,0.9-0.7,2.1-0.9,3c-0.2,0.9-0.2,1.8-0.4,2.5
				c-0.2,0.9-0.4,1.6-0.7,2.5c-0.4,0.9-0.5,1.8-0.9,2.5c-0.4,0.5-0.5,0.9-0.5,1.4s0.4,1.1,0.5,1.6c0.4,0.5,0.5,1.2,0.7,1.9
				c0.2,0.4,0.2,0.7,0.2,1.1c0.2,0.4,0.5,0.5,0.5,0.9s0,1.1,0.2,1.1c0.4,0.2,0.5,0.2,0.7,0.2c0.4,0,0.7-0.4,0.9-0.7
				c0.7-0.7,1.2-0.5,2.1-0.5c1.4-0.2,2.6-0.7,4-0.7c0.9-0.2,1.9,0,3,0c0.9,0,1.9-0.2,2.8-0.2c0.5,0,0.7,0.2,0.7,0.2v0.2
				c0.2,0.4,0.4,0.7,0.7,0.9c0.7,0.4,1.2,0.5,1.9,0.9c0.7,0.4,1.4,0.7,2.1,0.7c0.5,0,0.7-0.4,0.9-0.7C80.8,28.6,80.6,26.5,80.3,25.1
				 M72.3,11.3c0.2-0.2,0.2-0.2,0.4-0.2c0.2,0,0.4,0.2,0.7,0.2h0.2v0.2c0,0.7-0.2,0.9-0.9,0.9h-0.2l0,0
				C72.2,12.2,72.2,11.7,72.3,11.3 M70.9,14.7v-0.2c0.4,0.2,0.5,0.2,0.5,0.5c0.2,0.5,0.2,1.2,0.2,1.8v0.4l0,0
				c-0.4,0.4-0.9,0.7-1.2,1.2c-0.7,0.9-1.2,1.8-2.1,1.8h-0.2l0.2-0.2c0.2-0.4,0.4-0.5,0.5-1.1c0.4-0.7,0.9-1.4,1.2-1.8
				C71.1,15.9,71.1,15.7,70.9,14.7 M66.9,17.3c-0.2,0-0.2,0-0.4-0.2c-0.4-0.2-0.2-0.4,0.2-0.5c0.2-0.2,0.4-0.4,0.5-0.5
				c0.2-0.2,0.2-0.5,0.4-0.7c0.2-0.2,0.5-0.4,0.7-0.4c0.5-0.2,1.1-0.7,1.6-0.7c0.2,0,0.4,0,0.4,0.2l-0.2,0.2
				c-0.4,0.2-0.7,0.4-0.9,0.7C68.5,16.1,67.9,17.3,66.9,17.3 M63,14.1c0,0,0.2-0.4,0.2-0.7l0,0l0,0c0.5-0.2,0.9-0.4,1.2-0.5
				c0.7-0.2,1.2-0.4,2.1-0.9c0.5-0.4,2.3-0.7,3.3-0.7c0.4,0,0.5,0.9,0.5,1.1v0.2h-0.2c-0.4,0.2-0.7,0.2-1.1,0.2
				c-1.2,0.2-2.6,0.5-3.9,0.9c-0.7,0.2-1.6,0.7-2.1,0.7C63,14.1,63,14.1,63,14.1L63,14.1L63,14.1z M64.4,26.3
				c0.2,0.2,0.4,0.2,0.5,0.2c0.2,0,0.5-0.2,0.9,0c0.4,0,0.9,0.2,0.9,0.2c-0.2,0-0.5,0.2-0.5,0.2c-1.1,0.2-2.3,0.4-3.3,0.4
				s-1.6-1.2-1.8-2.1c-0.2-1.2-0.5-2.8-0.2-4c0.2-1.1,0.7-2.1,0.7-3.2c0-0.4,0.2-0.9,0.4-1.2l0,0l0,0c0.4,0,0.7,0,1.1-0.2
				c0.4-0.2,0.7-0.2,0.9-0.2c0.2,0,0.7,0.2,0.7,0.4s-0.2,0.4-0.4,0.5c-0.4,0.4-0.5,0.7-0.9,1.1c-0.7,0.5-1.6,0.9-1.6,1.8
				c0,0.2,0.5,0.4,0.5,0.4c0.7,0.4,1.2,0.2,1.9-0.2c0.2-0.2,0.5-0.2,0.7-0.4l0,0l0,0c0,0,0.2,0,0.2,0.2c0.2,0.2-0.7,1.1-0.7,1.1
				c-0.7,0.5-1.6,0.7-2.1,1.4c-0.2,0.2-0.4,0.4-0.4,0.5c0,0.5,0.5,0.7,0.9,0.9c0.4,0.2,0.9,0.4,1.2,0.2c0.9-0.4,1.4-0.9,2.3-1.2
				c0.9-0.2,1.8-0.4,2.5-0.5c0.7-0.2,1.2-0.4,1.8-0.9c0.5-0.5,0.5-0.5,1.1-1.4l0,0h0.2c0.2,0,0.2,0,0.4,0c0.2,0,0.2,0.2,0.2,0.2
				c0.2,0-0.5,1.1-0.5,1.1c-1.2,1.2-3.2,1.8-4.6,2.3c-0.7,0.4-1.6,0.5-2.1,1.2C65,25.2,64.2,25.9,64.4,26.3 M76.2,27
				c-0.5,0-0.5-0.7-0.9-0.9l0,0c-0.4-0.4-0.7-0.5-1.1-0.5c-0.7,0-1.4,0.2-2.1,0.4c-0.7,0.2-1.6,0.2-2.3,0.2
				c-0.5,0.2-1.1,0.2-1.8,0.2c-0.4,0.2-0.7,0.2-0.9,0.2c0.4-0.5,1.2-0.9,1.8-1.1c0.7-0.4,1.2-0.5,1.8-0.7l0,0l0,0l0,0
				c0,0,0.2,0,0.2,0.2s-0.2,0.2-0.2,0.4c0.2,0,0.5-0.2,0.5-0.2c0.2-0.2,0.5-0.2,0.7-0.4c0.4-0.4,0.5-0.9,0.9-1.2
				c0.2-0.4,0.5-0.7,0.9-0.9l0,0c0.4,0,0.5,0.5,0.5,0.7c0.2,0.5,0.5,1.1,0.7,1.6c0.2,0.4,0.2,0.7,0.5,0.9c0.4,0.4,1.1,0.4,1.6,0.4
				c0.2,0,0.5-0.2,0.5-0.2S77.4,27,76.2,27 M77.6,16.6c0,0.2,0,0.4,0,0.5c0,0.9,0,1.8-0.2,2.6c0,0.9-0.2,1.8-0.2,2.6v0.2H77
				c0,0,0,0-0.2,0c-0.5,0.4-0.9-0.5-1.1-0.9c-0.2-0.5-0.4-0.9-0.5-1.4c-0.2-0.4-0.2-0.7-0.4-0.9l0,0l0,0c0.2-0.4,0.5-0.7,0.7-1.1
				s0.4-0.9,0.7-1.2c0.2-0.4,0.5-0.9,0.4-1.1c-0.4-0.7-0.9-0.9-1.2-0.9c-0.4,0-0.7,0.2-1.1,0.5c-0.5,0.5,0,1.4-0.5,2.1h-0.2
				l-0.2-0.2L72.9,17l0,0l0,0c0,0-0.5-1.8-0.2-2.1c0.4-0.2,0.7-0.4,1.1-0.4s0.9,0.2,1.2,0s0.5-0.5,0.5-0.7c0.2-0.5,0.2-0.9-0.4-1.1
				l0.2-0.2C77.3,12.7,77.6,15,77.6,16.6"/>
			<path class="st1" d="M102.8,17.8c0.7-0.2,1.2,0,1.8,0.2l0.2,0.2l-0.2,0.2c-1.1,1.1-1.4,2.8-2.5,4c-0.9,1.1-2.1,1.8-3.3,2.5
				c-0.7,0.4-1.2,0.5-1.9,0.7c-0.5,0.2-0.9,0.7-1.6,0.9c-0.2,0-0.7,0-1.1,0c-1.1,0.2-2.3,0.2-3.5,0.4c-0.5,0.2-0.9,0.9-0.9,1.2
				c0,0.4,0.4,0.7,0.7,0.9c0.4,0.4,0.7,0.4,1.1,0.2c0.4-0.2,0.9-0.2,1.6-0.4c0.7-0.2,1.4-0.4,2.1-0.5c0.7-0.2,1.4-0.2,2.1-0.2
				c1.8-0.2,3.2-1.1,4.9-0.7c0.5,0.2,0.9,0.4,1.6,0.4c1.1,0.2,2.3,0.2,3.3,0c1.2-0.2,2.5-0.2,3.7-0.2c0.5,0,1.4,0.2,1.8-0.4
				c0.5-0.7,0.5-1.1,0.5-1.6c-0.2-0.7-1.2-1.1-1.9-1.4c-0.4-0.4-0.9-0.2-1.4-0.2c-1.2,0.2-2.6,0.7-3.9,0.7c-0.7,0.2-1.6,0.2-2.1-0.4
				h-0.4c-0.4-0.2,0.7-1.1,0.7-1.2c0.7-0.9,1.4-1.9,1.6-3c0.2-0.9,0.5-1.1,1.1-1.4c0.2-0.2,0.4-0.2,0.4-0.4c0.2-0.2,0.2-0.4,0.4-0.5
				l0,0l0,0c0.5-0.2,1.1-0.2,1.8-0.4c0.5-0.2,1.1-0.4,1.6-0.4c0.2,0,0.2-0.2,0.4-0.2c0.2-0.2,0.2-0.7,0.2-0.9
				c-0.2-0.5-0.7-0.9-1.2-1.2c-0.5-0.2-0.9-0.2-1.2-0.2c-0.4,0-0.9,0.2-1.4,0.2c-0.5,1.1-0.7,1.1-1.2,1.2c-0.9,0.2-1.8-0.2-2.6-0.4
				h-0.2v-0.2c-0.2-0.5-0.4-0.9-0.7-1.4c-0.2-0.4-0.5-0.9-0.5-1.2c0.2-1.1-0.9-2.1-2.1-1.9c-0.2,0-0.9,0.4-0.9,0.5
				c0.2,0.7-0.2,1.2,0.2,1.9c0.2,0.7,0.9,1.1,1.1,1.8c0.2,0.2,0.4,0.5,0.5,0.5c0.2,0.2,0,0.4,0,0.5l0,0l0,0
				c-0.4,0.2-0.5,0.2-0.9,0.2c-0.4,0.2-0.5,0.2-0.9,0.4c-0.9,0.4-2.1,0.5-3.2,0.5c-0.2,0-0.4,0-0.5-0.2L95.4,17c0-0.2-1.4,0-1.6,0
				c-0.7,0.2-1.2,1.1-1.1,1.9c0.2,0.5,1.2,0.5,1.8,0.5c0.7,0,1.6-0.2,2.3-0.4c0.5-0.2,1.1-0.4,1.6-0.4v0.2c-0.2,0.4-0.2,0.4-0.4,0.5
				c-0.5,0.4-0.9,0.7-1.2,1.1s-0.9,0.7-1.1,1.2c-0.4,0.5-0.4,1.9-0.2,2.5c0.4,0.7,1.4,0,1.8-0.4c0.5-0.5,0.9-0.9,1.2-1.6
				c0.4-0.5,0.7-0.9,1.1-1.6c0.2-0.5,0.2-1.1,0.4-1.6c0.2-0.2,0.2-0.5,0.4-0.7V18h0.2C101,18.4,101.9,18,102.8,17.8"/>
			<path class="st1" d="M141,27.9c-1.1-0.4-2.1,0.2-3.2,0.2c-0.5,0-1.1-0.2-1.6-0.2c-0.2,0-0.2,0-0.2,0h-0.2c0-0.2,0.2-0.4,0.2-0.5
				c0.5-0.2,1.1-0.2,1.6-0.2c0.9,0,2.3,0,2.6-0.4c0.2,0,0.2-0.4,0.2-0.5v-0.2c0.2-0.5-0.2-0.9-0.5-1.1c-0.4-0.2-0.9-0.2-1.2-0.2
				c-0.2,0-0.2,0-0.4,0h-0.2c-0.9,0.2-1.8,0.2-2.5,0.4h-0.2V25c0-0.2-0.2-0.2-0.2-0.2l-0.2-0.2h0.2c0.9-0.4,1.6-0.4,2.5-0.4
				c0.4,0,0.7,0,1.1,0c0.2,0,0.5,0,0.5-0.2c0-0.5,0.4-1.1,0.2-1.6c-0.2-0.4-0.5-0.7-0.5-1.1c0.2-0.2,0.4-0.4,0.5-0.5
				c0.2-0.2,0.2-0.2,0.2-0.4c0-0.2-0.2-0.4-0.2-0.5s0-0.2,0-0.2c-0.4-0.4-0.9-0.4-1.2-0.4c-0.5,0-0.9,0.2-1.2,0.4
				c-0.5,0.2-0.9,0.4-1.6,0.5c-0.5,0-1.1-0.2-1.6,0.2c-1.6,0.5-3.2,0.4-4.6,0.5c-0.4,0-0.7,0.2-0.9,0.4c-0.2,0-0.4,0.2-0.5,0.2
				c-0.2,0.5,0.4,1.1,1.1,1.6c0,0,0,0,0.2,0s0.2,0,0.2,0l0.4-0.2h0.2h0.2v0.4l0,0c-0.2,0.2-0.4,0.2-0.5,0.4
				c-0.7,0.4-1.6,0.7-1.6,1.6c0,0.2,0.2,0.2,0.4,0.4s0.5,0.4,0.7,0.4s0.5-0.2,0.7-0.2c0.9-0.4,1.8-0.4,2.6-0.5c0.2-0.2,0.4,0,0.7,0
				h0.2v0.2v0.2c0,0.2,0.2,0.4,0,0.5l0,0l0,0c-0.4,0.2-0.5,0.4-0.9,0.5c-0.9,0.4-2.1,0.5-3.2,0.4c-0.4,0-0.7-0.4-1.1-0.2
				c-0.4,0.2-0.5,0.4-0.7,0.5c-0.2,0.2-0.5,0.4-0.4,0.7c0.2,0.2,0.5,0.4,0.7,0.5c0.4,0.2,0.5,0.4,0.9,0.4c0.4,0,0.7-0.2,1.1-0.2
				c0.9-0.2,1.8-0.4,2.6-0.4h0.2v0.2c-0.2,0.7-1.2,0.9-1.9,1.1c-0.9,0.2-1.9,0.2-2.8,0c-0.2,0-0.4,0-0.4-0.2c-0.4,0-0.5-0.2-0.9,0
				s-0.4,0.4-0.7,0.5c-0.2,0.2-0.4,0.4-0.4,0.5s0.4,0.5,0.5,0.5c0.4,0.4,0.7,0.5,1.1,0.5h0.2c0.5,0,1.1-0.2,1.8-0.2
				c0.7-0.2,1.2-0.2,1.9-0.4c0.7-0.2,1.6-0.5,2.3-0.5s1.6,0,2.3,0c2.3,0.2,4.6,0.4,6.9-0.2c0.2,0,0.4-0.4,0.4-0.4
				c0-0.4-0.2-0.7-0.4-1.1C142,28.4,141.3,28,141,27.9 M134.8,22.8c-0.5,0-0.9,0.4-1.4,0.4l0,0V23c0-0.2,0-0.2-0.2-0.2
				c0-0.2-0.2-0.2-0.2-0.2v-0.2h0.2c0.4-0.2,0.7-0.2,1.1-0.2c0.4-0.2,0.7-0.2,1.1-0.2c0.4,0,0.7,0,1.1,0h0.2v0.2
				c0,0.4-0.2,0.4-0.4,0.4C135.9,22.9,135.4,22.8,134.8,22.8"/>
			<path class="st1" d="M146.4,20.7c-0.2-0.5-0.2-1.1-0.9-1.2c-0.4-0.2-0.9-0.2-1.2-0.2c-0.4,0-0.7-0.4-1.2-0.5
				c-0.5-0.2-0.9-0.4-1.6-0.5c-0.9-0.4-2.1-0.7-3-0.4c-0.4,0.2-0.7,0.4-1.1,0.5c-0.4,0.2-0.7,0.2-1.1,0.4c-0.9,0.2-1.8,0.4-2.5,0.4
				c-1.6,0-3.2,0-4.6,0.5c-0.2,0.2-0.4,0.2-0.4,0.2c-0.2,0.2-0.2,0.2-0.4,0.2c-0.5,0.2-0.7-0.7-1.2-0.7c-0.2,0-0.5,0-0.7,0
				c-0.4,0-0.5,0.2-0.7,0.4c-0.5,0.2-1.1,0.4-1.6,0.7c-0.4,0.4-0.7,0.7-1.1,0.9c-0.5,0.4-1.1,0.7-1.8,1.1c-0.4,0.2-0.5,0.2-0.7,0.2
				s-0.5-0.2-0.7,0.2c-0.5,0.5,0.9,1.9,1.6,1.9c1.1,0,1.4-0.9,2.1-1.4c0.5-0.4,0.9-0.4,1.4-0.5c0.5-0.4,1.1-0.5,1.6-0.9
				s0.9-0.7,0.9-1.2v-0.2h0.2c0.2,0,0.5,0.5,0.7,0.5c0.5,0.5,0.9,0.7,1.6,0.5c0.4-0.2,0.7-0.2,1.1-0.4c0.5-0.2,0.9-0.2,1.2-0.2
				c1.6-0.2,3,0,4.4-0.5c0.5-0.2,0.9-0.4,1.2-0.5c1.6-0.4,3.3,0,4.8,0.7l0,0l0,0c0.2,0.4-1.2,0.9-1.6,1.1c-0.2,0.2-0.2,0.5-0.2,0.7
				c0.4,0.4,1.2,0.4,1.8,0.2c0.7-0.2,1.4-0.4,2.1-0.4c0.2,0,0.5,0,0.5-0.2C145.9,21.5,146.4,21,146.4,20.7"/>
			<path class="st1" d="M127.8,13.8c0.4,0.4,0.7,0.9,1.2,1.1l0,0l0,0l0,0c0.2,0.2,0,0.4-0.2,0.5c-0.4,0.5-0.7,1.1-0.5,1.8
				c0.2,0.5,0.7,0.9,1.1,1.4c0.2,0.2,0.9,0.2,1.1,0.2l0,0c0.7,0,1.6,0,2.1-0.2c1.2-0.4,2.5-0.5,3.9-0.7c0.4,0,1.2,0.2,1.4-0.4
				c0.2-0.4,0.5-0.5,0.9-0.9c0.4-0.2,0.7-0.4,0.7-0.7c0.2-0.5,0.2-1.2-0.5-1.4c-1.2-0.2-2.5-0.2-3.7-0.2c-0.9,0-1.8,0-2.6,0.2
				c-0.5,0.2-0.9,0.2-1.2,0.4c-0.2,0-0.4,0.2-0.5,0.2c-0.2,0-0.4-0.4-0.5-0.4c0.4-0.2,0.7-0.2,1.2-0.4c0.9-0.2,1.8-0.4,2.6-0.4
				c1.2,0,2.3,0,3.5,0c0.5,0,1.2-0.2,1.6-0.5c0.2-0.2,0.7-1.1,0.5-1.2C139.7,12,139,12,139,12c-0.5,0-1.1,0.2-1.8,0.2
				c-0.4,0-0.5,0.2-0.9,0V12c0-0.2,0-0.2,0-0.4l0,0h0.2c0.5-0.2,1.1-0.2,1.6-0.2c0.7-0.2,1.2-0.2,1.9-0.2c0.5-0.2,0.9-0.2,0.9-0.7
				c-0.2-0.4-0.2-0.9-0.5-1.1c-0.5-0.4-1.4-0.2-1.9,0c-0.2,0-2.1,0.5-2.3,0.5l0,0c-0.2-0.4-0.5-0.9-0.9-1.1
				c-0.4-0.2-1.1-0.5-1.2-0.2c-0.4,0.4-0.2,0.5-0.2,0.9c0,0.2-0.2,0.4-0.2,0.5c0,0.2-0.2,0.4-0.4,0.5l0,0l0,0
				c-0.7,0.4-1.4,0.5-2.1,0.2c-0.2-0.2-0.5-0.2-0.9-0.2s-0.7,0-1.2,0c-0.4,0-0.5,0-0.9,0.2c-0.4,0.2-0.5,0.4-0.5,0.5
				c0,0.4,0.4,0.5,0.4,0.7c0.2,0.4,0.4,0.5,0.5,0.7c0.2,0.2,0.2,0.2,0.2,0.2c-0.2,0.2-0.5,0.2-0.7,0.2
				C128,13.4,127.6,13.6,127.8,13.8 M132.4,16.4L132.4,16.4L132.4,16.4c0.7-0.4,2.3-0.4,3.3-0.5c0.2,0,0.4,0,0.5,0h0.2v0.2
				c0,0.4-0.2,0.4-0.5,0.4h-0.2c-0.4,0.2-1.1,0.2-1.6,0.4c-0.5,0.2-0.9,0.2-1.1,0.2c-0.2,0.2-0.2,0.2-0.4,0.2s-0.4-0.2-0.4-0.2
				C132.2,16.6,132.2,16.4,132.4,16.4 M129.4,12.9c0.2-0.2,0.5-0.4,0.7-0.4c0,0,0.7-0.2,1.2-0.2c0.4,0,0.7,0,1.1,0h0.2v0.2
				c-0.2,0.2-0.2,0.2-0.2,0.2l0,0c-0.4,0.2-0.7,0.2-1.1,0.2c-0.2,0-0.5,0-0.7,0s-0.4,0-0.5,0c-0.4,0-0.5,0-0.7,0.2h-0.2L129.4,12.9z
				"/>
			<path class="st1" d="M190.3,12.9c0.4,0.2,0.5,0.4,0.9,0.4c0.9,0.2,1.8,0,2.5-0.4s2.1-0.4,2.6-1.1c0.2-0.2,0.2-0.4,0.2-0.4
				c0-0.2-0.5-0.4-0.5-0.5c-0.9-0.5-1.8-0.5-2.6-0.4c-0.7,0.2-1.9,0.4-2.5,0.7l-0.2,0.2c-0.2,0.2-0.4,0.4-0.5,0.7
				C189.7,12.6,189.9,12.7,190.3,12.9"/>
			<path class="st1" d="M160.2,15.4c0.5,0.4,1.1,1.1,1.8,1.2c0.4,0.2,0.9,0.2,1.2,0.2c0.2,0,0.5-0.2,0.5-0.2c0-0.9-0.2-1.2-0.4-1.6
				c-0.7-0.5-1.6-0.9-2.1-1.6c-0.4-0.4-1.1-1.4-1.6-1.6c-0.2,0-0.4,0-0.5,0c-0.5,0-0.7,0.2-1.1,0.7c-0.2,0.2-0.2,0.2-0.2,0.4
				c-0.2,0.4,0.4,0.9,0.5,1.1C158.9,14.7,159.6,14.8,160.2,15.4"/>
			<path class="st1" d="M163,19.2c-0.2-0.2-0.2-0.4-0.4-0.4h-0.2c-0.2,0-0.5,0.2-0.7,0.4l-0.2,0.2v-0.2c0-0.2-0.2-0.4-0.4-0.4
				c-0.2-0.2-0.2-0.4-0.4-0.4c-0.4-0.5-0.9-0.5-1.1-0.9c-0.2-0.4-0.4-0.7-0.7-1.1c-0.4-0.2-0.7-0.2-1.1-0.2c-0.4,0-0.9,0.2-1.1,0.4
				c-0.2,0.4-0.4,0.9-0.2,1.1c0.2,0.4,0.4,0.5,0.7,0.9c0.5,0.5,1.4,1.1,2.1,1.2c0.4,0.2,0.7,0,1.1,0.2h0.2l-0.2,0.2
				c-0.2,0.2-0.4,0.2-0.5,0.4c-0.2,0.2-0.4,0.4-0.4,0.5c-0.2,0.4-0.5,0.5-0.7,0.9c-1.2,1.1-1.9,2.5-3.2,3.5
				c-0.4,0.4-0.7,0.5-1.1,0.7c-0.4,0.2-0.5,0.2-0.9,0.4c-0.2,0.2-0.5,0.7-0.7,0.7c-0.2,0.2-0.4,0.5-0.4,0.7c0.2,0.5,0.9,0.7,1.2,0.7
				l0,0c1.1,0,2.6-1.8,3.3-2.5s1.1-1.4,1.6-2.1s1.1-1.6,1.8-2.1s1.2-1.2,1.8-2.1v-0.2C163.2,19.4,163,19.2,163,19.2"/>
			<path class="st1" d="M166.2,20c0.4-0.2,0.4-0.5,0.5-0.7c0.2-0.2,0.5-0.9,0.7-1.4c0.2,0.2,0.4,0.4,0.5,0.5
				c0.4,0.2,0.5,0.2,0.7,0.4h0.2c0.2,0,0.4,0,0.5-0.2c0,0,0,0,0-0.2c0.2-0.2,0.5-0.2,0.7-0.2c0.2-0.2,1.2-0.4,1.4-0.5l0,0
				c0.2,0,0.4-0.4,0.5-0.4c0.4-0.4,0.9-0.7,0.9-1.2c0.2-0.4-0.2-0.7-0.5-0.9c-0.2-0.2-0.5-0.4-0.7-0.4l0,0c-0.4,0-0.7,0.4-0.9,0.4
				s-1.1,0.4-1.2,0.5c-0.2,0-0.5,0.2-0.7,0.2c-0.4-0.2-0.5-0.2-0.7-0.2c-0.5,0-0.9,0.5-1.2,0.7l0,0c0,0.2,0,0.2,0.2,0.4
				c-0.2,0.2-0.4,0.4-0.5,0.5c-0.4,0.2-0.5,0.2-0.7,0.4h-0.5l0.2-0.2c0.5-0.7,0.9-1.6,1.2-2.3c0.2-0.4,0.4-0.5,0.2-0.9
				c0-0.2-0.2-0.2-0.4-0.2c-0.5-0.2-0.5-0.4-0.5-0.4c0-0.4,0.7-0.7,0.9-0.9s0.2-0.4,0.4-0.7c0.2,0.2,0.4,0.2,0.5,0.2c0,0,0,0,0.2,0
				c0.4,0,0.5-0.2,0.7-0.2c0.5,0,0.9-0.2,1.4-0.2c0.4,0,0.7,0,1.1-0.2c0.7-0.2,1.6,0,2.1-0.2l0,0c0.2-0.2,0.4-0.2,0.4-0.4
				s0.2-0.4,0.4-0.5c0.2-0.5-0.9-0.9-1.2-0.9c0,0,0,0-0.2,0c-0.4,0-0.7,0.2-1.1,0.2c-0.2-0.2-0.4-0.4-0.5-0.4
				c-0.4-0.2-0.7,0-1.1-0.2c-0.4-0.2-0.5,0-0.7,0.2s-0.4,0.9-0.4,1.1V11c-0.4,0.2-0.5,0.2-0.7,0.4c-0.4,0.2-0.7,0.2-0.9,0.4
				c0-0.2,0-0.2-0.2-0.2c-0.2-0.4-0.4-0.5-0.7-0.7c0-0.4-0.2-0.4-0.4-0.4c-0.4,0-0.5,0.2-0.5,0.2c-0.7,0.2-0.7,1.8-1.2,2.1
				c-0.4,0.4-0.9,0.7-0.9,1.2c0,0.4,0.2,0.5,0.4,0.7c0.4,0.5,0.4,1.1,0.7,1.6c0.2,0.2,0.4,0.2,0.4,0.4c0,0.2,0,0.2-0.2,0.4v0.2
				c-0.2,0.2-0.4,0.4-0.4,0.7c-0.2,0.2-0.4,0.5-0.5,0.7c-0.4,0.4-0.5,0.5-0.7,0.9s0.9,0.9,1.1,0.9c0.2,0,0.5,0,0.9,0
				c0.2,0,0.4,0,0.7,0C165.8,20,166,20,166.2,20 M170.4,16.3L170.4,16.3c0.2,0.2,0.2,0.4,0.2,0.5c0,0,0,0.2-0.2,0.2
				c-0.2,0.2-0.4,0.2-0.5,0.2s-0.4,0.2-0.5,0.2c0-0.4-0.2-0.5-0.2-0.7C169.5,16.4,170,16.3,170.4,16.3"/>
			<path class="st1" d="M168.6,13.6c0.5,0,1.1-0.2,1.6-0.2c0.5-0.2,0.9-0.4,1.2-0.5c0.2-0.2,0.4-0.4,0.4-0.5s-0.2-0.4-0.2-0.4l0,0
				c-0.5,0.2-0.9,0.4-1.4,0.4s-1.1-0.2-1.6,0c-0.2,0-0.4,0.2-0.5,0.4c-0.2,0.2-0.4,0.4-0.4,0.4c0,0.4,0.2,0.5,0.4,0.5
				C168.3,13.6,168.3,13.6,168.6,13.6"/>
			<path class="st1" d="M167.2,15c0,0.2,0.2,0.4,0.4,0.4h0.2c0.2,0,0.4-0.2,0.5-0.2c0.9-0.2,1.6-0.2,2.3-0.5
				c0.5-0.2,1.1-0.5,1.1-1.1c0-0.2,0-0.2,0-0.2s0,0-0.2,0s-0.5,0.2-0.5,0.2c-0.5,0.2-1.1,0.4-1.8,0.4c-0.4,0-0.7,0-1.1,0
				c-0.4,0-0.7,0.2-0.7,0.4C167.4,14.5,167.2,14.8,167.2,15"/>
			<path class="st1" d="M177.8,16.4c-0.2,0-0.2-0.2-0.2-0.2c-0.2,0-0.2,0-0.2-0.2s-0.2-0.2-0.2-0.2l0,0l0,0c-0.2,0-0.5,0.2-0.7,0.4
				c-0.2,0.2-0.4,0.2-0.5,0.2c-0.2,0-0.2,0-0.2,0.2c-0.5,0.4-0.2-0.7,0-0.9c0.2-0.4,0.4-0.7,0.5-1.1c0.4-0.7,0.4-1.6,0.9-2.3
				c0.2-0.2,0-0.4,0-0.5c-0.4-0.5-0.7-0.4-1.1-0.4c-0.9,0.2-0.5,1.6-1.2,1.9c-0.2,0.2-0.4,0-0.5-0.2c0.2-0.2,0.2-0.4,0.2-0.5
				c0.4-0.7,0.9-1.1,1.2-1.6c0.4-0.4,0.7-0.9,0.7-1.2c0.2-0.5-0.2-0.5-0.5-0.7c-0.4-0.2-0.5-0.2-0.9,0.2c-0.2,0.2-0.4,0.2-0.5,0.4
				c-0.4,0.2-0.5,0.9-0.7,1.2c-0.4,0.4-0.5,0.7-0.9,1.1c-0.5,0.5-1.1,1.4-0.4,1.9c0.2,0.2,0.4,0.2,0.5,0.2c0.2,0,0.4,0.2,0.4,0.2
				l0.2,0.2l-0.2,0.2l-0.2,0.2c-0.2,0.2-0.4,0.5-0.5,0.7c-0.2,0.4-0.4,0.9-0.5,1.2c-0.2,0.4-0.4,0.9-0.4,1.2c0,0.2,0.2,0.4,0.4,0.4
				c0.4,0.2,1.1,0.2,1.6,0.2c0.5,0.2,1.2,0.4,1.8,0.2c0.2,0,0.4-0.2,0.5-0.2c0.5-0.4,0.7-0.9,1.1-1.2c0.2-0.4,0.4-0.5,0.4-0.7
				C178.1,16.4,178.1,16.4,177.8,16.4"/>
			<path class="st1" d="M175.5,22.9c-0.7-0.4-1.2-0.5-1.9-0.4c-0.4,0.2-0.9,0.4-1.2,0.4c-0.5,0.2-0.9,0.4-1.4,0.4
				c-0.5,0.2-1.8,0.4-1.9,0.5c-0.2,0-0.4,0.2-0.4,0.2l-0.2-0.2v-0.2c0-0.2,0-0.2,0-0.2s0.2,0,0.2-0.2c0.7-0.4,1.6-0.5,2.3-0.7
				c0.4-0.2,0.5-0.2,0.7-0.2s0.5,0,0.7-0.2c0.2,0,0.2-0.2,0.4-0.2c0.2-0.2,0.4-0.2,0.4-0.2c0.4-0.4,0.5-0.5,1.1-0.9
				c0.4-0.2,0.9-0.7,0.9-0.9c0.2-0.5-0.5-0.7-0.9-0.9c-0.9-0.5-1.9-0.7-3-0.9c0,0,0,0-0.2,0c-0.9,0-1.8,0.5-2.5,0.7
				c-0.7,0.4-1.6,0.5-2.5,0.9c-0.4,0.2-1.1,0.4-1.2,0.7c-0.2,0.2,0,0.5,0.2,0.7s0.4,0.5,0.5,0.5c0.5,0.2,1.1,0,1.6-0.4
				c0.7-0.4,1.1-0.9,1.9-1.1c0.7-0.2,1.4-0.2,2.1-0.4c0.2,0,0.5-0.2,0.7,0c0,0.2,0,0.4,0,0.5c-0.7,0.2-1.4,0.4-2.1,0.4
				c-0.9,0.2-1.8,0.7-2.6,1.1c-0.4,0.2-0.7,0.4-1.1,0.4c0,0-0.4,0-0.4,0.2l0,0c-0.2,0.2-0.2,0.2-0.2,0.4s0.2,0.2,0.2,0.4
				c0.4,0.5,0.2,1.1,0.4,1.6c0.2,0.2,0.5,0.4,0.7,0.4c1.1,0.2,2.5-0.2,3.7-0.4c0.9-0.2,1.8-0.4,2.5-0.4c0.4,0,0.7,0,0.5,0.4
				c-0.2,0.7-0.7,1.6-1.1,2.3c-0.5,1.1-3.3,1.2-4.6,0.9c-0.5-0.2-0.9-0.4-1.4-0.5c-0.2-0.2-0.9-0.4-1.1,0c-0.2,0.2,0,0.4,0,0.4
				c0.2,0.4,0.5,0.7,0.7,1.1c1.2,1.2,3.2,1.6,4.9,1.8c0.7,0.2,1.1,0.2,1.6,0s0.9-0.4,1.2-1.1c0.5-0.9,0.9-1.9,1.4-3
				c0.4-0.5,1.1-1.1,1.1-1.8c0.2-0.5,0.2-0.9-0.2-1.4C176.4,23.3,175.8,23.1,175.5,22.9"/>
			<path class="st1" d="M209.3,19.2c-0.2,0-0.4,0.2-0.5,0.4c-0.2,0.2-0.2,0.2-0.2,0.2c-0.4,0.2-0.4,0.5-0.5,0.7
				c-0.4,0.4-0.5,0.5-0.9,0.7c-0.4,0.4-0.5,0.7-0.9,0.9c-0.4,0.2-0.9-0.2-1.1-0.4s-0.5-0.5-0.7-0.7c-0.5-0.9-1.1-1.8-0.7-2.6
				c0.2-0.5,0.7-1.1,0.5-1.8c0-0.4-0.5-0.5-0.9-0.5c-0.4-0.2-0.7-0.5-1.1-0.5c-0.2,0-0.5,0.2-0.9,0.2c-0.2,0.2-0.4,0.2-0.5,0.2
				c0.2-0.2,0.2-0.4,0.2-0.5c0.2-0.2,0.4-0.5,0.4-0.7c0.4,0,0.9,0,1.2-0.2c0.9-0.2,1.8-0.2,2.5-0.4c0.5-0.2,0.7-0.4,0.5-0.9
				s-0.5-0.9-0.9-1.1c-0.9-0.4-1.9-0.4-3-0.2c0.4-0.4,0.7-0.5,0.9-1.1c0.5-1.4-1.4-1.8-2.3-1.6C200,9.5,200,10,200,10.4
				c-0.2,0.5-0.7,0.7-1.1,1.1c-0.4,0.4-0.5,0.7-0.9,0.9s-0.5,0.4-0.9,0.5c-0.9,0.2-1.8,0.4-2.5,0.5c-1.1,0.4-1.9,0.7-3,0.7
				c-0.7,0-3.7-0.7-3.2,0.9c0.2,0.5,0.9,0.7,1.2,0.9c0.2,0,0.2,0.2,0.4,0.2c0.5,0.2,0.9,0,1.2-0.2c0.2,0,0.4-0.2,0.5-0.2
				c0,0.2,0.2,0.4,0.2,0.5c-0.4,0.2-0.5,0.2-0.9,0.2c-0.5,0.2-1.1,0.4-1.6,0.4c-0.4,0-0.5-0.2-0.9-0.2c0,0,0,0-0.2,0
				s-0.5,0.4-0.7,0.4c-0.4,0.4-0.7,1.4-0.4,1.9c0.2,0.2,0.4,0.2,0.5,0.2s0.7-0.2,0.9-0.2c0.9-0.2,1.8-0.5,2.5-0.7
				c0.2,0,0.4,0,0.4-0.2c0,0.2,0,0.5-0.2,0.7c-0.7,0.2-1.2,0.4-2.1,0.5c-0.9,0.2-1.4,0.5-2.1,0.5c-0.4,0.2-0.9,0.2-1.2,0.2
				c-0.4,0-0.7-0.2-0.9,0.2c-0.4,0.2-0.5,0.5-0.5,0.7c-0.2,0.4,0.2,1.4,0.7,1.6c0,0,0,0,0.2,0c1.1,0,2.3-0.7,3.3-1.1
				c0.9-0.4,1.8-0.4,2.6-0.5c-0.2,0.4-0.2,0.7-0.2,0.9c-0.2,0.4-0.4,0.5-0.7,0.7c-0.4,0.2-0.5-0.2-0.7-0.4h-0.2
				c-0.4,0-1.8,0.4-1.6,1.1c0.2,0.2,0.2,0.4,0.4,0.5c0.5,0.9,1.2,1.1,2.1,1.2c0.4,0.2,0.7,0.5,1.1,0.5c-0.4,0.2-0.7,0.2-0.9,0.2
				c-0.9,0.2-2.1-0.5-3,0c-0.7,0.5-0.4,1.9,0.5,1.9c0.2,0,0.4,0,0.4,0c1.6,0,3.2-0.5,4.8-0.5c0.2,0,0.2,0,0.2,0l0,0
				c-0.5,0.7-0.7,1.4-1.8,1.8c-0.5,0.2-1.8,0.4-1.9,1.1c-0.2,0.7,0.7,1.1,1.2,1.2c0.2,0,0.2,0,0.4,0.2c1.2,0.2,2.5-0.5,3.7-0.7
				c1.1-0.2,2.3-0.4,3.3-0.5c0.4-0.2,0.9-0.2,1.1-0.4c0.4,0.5,1.1,1.2,1.6,1.2h0.2c0.5,0,1.4-0.5,1.8-0.9c0.2-0.4,0.5-0.9,0.2-1.2
				c-0.5-0.7-1.2-1.6-1.6-2.3c-0.2-0.2-0.4-0.4-0.5-0.5c0.9,0,1.8-0.2,2.3-1.1c0.2-0.2,0.2-0.5,0.4-0.7c0.4,0.2,0.7,0.4,0.9,0.5
				c0.4,0.2,0.5,0.5,0.9,0.5c0.2,0,0.2,0,0.4,0c0.5,0,1.1-0.4,1.4-0.7c0.4-0.4,0.5-0.7,0.9-1.1c0.4-0.5,0.7-1.1,0.9-1.6
				c0.4-0.7,1.1-1.9,0.9-2.1C210.2,19.4,209.6,19.2,209.3,19.2 M201,17.5c0.2,0,0.5-0.2,0.5,0.2c0,0.5,0.2,0.9,0.2,1.2
				c-0.2,0-0.4,0-0.5-0.2c-0.4-0.2-0.5-0.4-0.9-0.5c-0.2-0.2-0.4-0.2-0.5-0.2c0-0.2,0.2-0.4,0.2-0.4l0,0
				C200.3,17.7,200.7,17.5,201,17.5 M198.9,27.3c-0.9,0.2-1.9,0.9-2.6,0.7c-0.4-0.2-0.2-0.4,0-0.7c0.2-0.4,0.5-0.5,0.5-0.9
				c0.2-0.2,0.4-0.2,0.5-0.2c0.7-0.4,1.4-0.5,2.1-0.5c0.4,0.5,0.4,0.9,0.4,1.4C199.6,27.2,199.1,27.3,198.9,27.3 M202.9,23.5
				c-0.7-0.2-1.2-0.2-1.9-0.2c-0.9,0.2-1.8,0.4-2.5,0.4c-2.1,0.2-4,1.1-6,1.6h0.2c0.4-0.4,0.7-0.7,1.1-1.1c0.2-0.4,0.2-0.7,0.2-1.1
				c0.2-0.4,0.2-0.9,0.2-1.2c0.2-0.5,0.2-0.9,0.4-1.4c0.4-0.2,0.7-0.4,1.1-0.4c0.5-0.2,1.2-0.4,0.7-1.1l-0.2-0.2
				c-0.4-0.5-0.9-0.5-1.4-0.5h-0.2c0-0.2,0-0.2,0-0.4s0-0.4,0-0.4h0.2c0.4-0.2,0.7,0,0.9-0.4c0.2-0.2,0.2-0.5,0.2-0.7
				s-0.4-0.9-0.5-0.9c0,0,0,0-0.2,0s-0.2,0-0.4,0.2c0,0,0,0,0-0.2s-0.2-0.4-0.4-0.4c0,0,0,0-0.2-0.2c1.2-0.4,2.5-0.5,3.7-0.7
				c0.5-0.2,1.1-0.2,1.6-0.2c-0.2,0.5-0.5,1.2-0.9,1.8c-0.2,0-0.5,0-0.7,0c-0.5,0-1.4,0-1.6,0.7c0,0.4,0.4,0.5,0.5,0.5
				c0.2,0.2,0.4,0.4,0.5,0.5l0,0c-0.2,0.5-0.2,0.7-0.4,0.9l0,0c-0.2,0.9-1.2,1.4-1.6,2.1c-0.2,0.2-0.4,0.5-0.4,0.7
				c-0.2,0-0.4,0-0.4,0c-0.4,0.2-0.5,0.2-0.7,0.7c-0.2,0.4-0.2,0.4,0.2,0.7c0.2,0.4,0.2,0.5,0.4,0.5c0.5,0.2,1.2-0.2,1.8-0.2
				c0.5-0.2,1.2-0.4,1.8-0.5c0.9-0.2,1.9-0.2,2.6-0.5c0,0,0.2,0,0.2-0.2c0.2-0.2,0.4-0.2,0.5-0.5c0.2-0.2,0.4-0.5,0.2-0.9
				c-0.2-0.2-0.4-0.2-0.7-0.2c-0.4,0-1.1,0-1.1,0c-0.2,0-0.2,0-0.4,0c-0.4,0-0.7,0-1.1,0c0-0.2,0.2-0.5,0.4-0.7s0.2-0.4,0.4-0.5
				c0.2,0.2,0.5,0.2,0.7,0.2s0.2,0.2,0.4,0.2c0.2,0.2,0.4,0.2,0.5,0.2c0.4,0,0.5-0.2,0.9-0.2c0.2,0,0.4-0.2,0.5-0.2
				c0.4,0.7,0.7,1.2,1.1,1.9c0.2,0.4,0.4,0.5,0.4,0.9c0,0.2,0,0.2,0.2,0.2C203.5,23.5,203.1,23.5,202.9,23.5"/>
			<path class="st1" d="M222.7,14.5c0.4,0,0.7-0.2,0.9-0.2c0.9-0.4,1.9-0.5,2.6-0.9c0.7-0.4,1.1-1.2,0.9-2.1
				c-0.2-0.5-0.5-0.5-0.9-0.7c-0.5-0.4-0.9-0.4-1.4-0.2c-0.4,0.2-0.7,0.4-0.9,0.5c-0.4,0.2-1.1,0.9-1.6,1.2
				c-0.5,0.4-0.5,0.7-0.5,1.4C221.8,14.3,222.3,14.7,222.7,14.5"/>
			<path class="st1" d="M231.5,23.3c-0.2-0.5,0.2-0.9,0.2-1.6c0.2,0.2,0.4,0.2,0.4,0.4c0.4,0.4,0.7,0.7,1.1,0.5h0.2
				c0.9-0.2,1.2-1.2,0.9-1.9c-0.4-0.5-1.1-1.1-1.6-1.4c-0.2-0.2-0.7-0.5-0.9-0.9c0,0,0,0,0-0.2c0.4-0.2,0.7-0.2,1.1-0.2
				c0.4,0,0.9,0.2,1.2-0.2c0.5-0.2,0.7-0.7,1.1-1.1l0,0c0.2-0.4,0.2-0.5,0.2-0.5c-0.2-0.2-0.4-0.4-0.5-0.7c-0.7-0.5-2.1-0.4-3.2,0.2
				c0-0.5,0-0.9,0-1.2c0.5-0.2,1.2-0.5,1.8-0.7c0.5-0.2,0.7-0.5,0.7-1.2c0-0.2,0-0.4-0.2-0.4c-0.7-0.4-1.4-0.2-2.1-0.2v0.2
				c0.2-0.5,0.2-1.1-0.5-1.4h-0.2c-0.4-0.2-1.6-0.4-1.8,0c0,0.2-0.2,0.2-0.2,0.2c-0.2,0.2-0.2,0.2-0.2,0.5c0.2,1.6,0.2,3-0.2,4.6
				c0,0.2,0,0.4,0,0.5c0,0.2,0,0.4,0,0.4c-0.9,0.4-1.9,0.5-2.8,0.7c-0.5,0-0.7-0.2-1.1,0.4c-0.5,0.5,0.5,1.2,0.9,1.6
				c0.2,0.2,0.4,0.2,0.5,0.2c0.5,0.2,1.1-0.2,1.6-0.4c-0.2,0.2-0.2,0.5-0.4,0.5c-0.2,0.4-0.4,0.5-0.7,0.7c-0.5,0.5-1.1,0.9-1.6,1.2
				c-0.4,0.4-1.2,0.7-1.6,1.1c0-0.4,0-0.7,0.2-0.9c0.2-0.9-0.2-1.9,0-2.8c0-0.5,0.2-0.9,0.2-1.1V18c0.2-0.2,0.2-0.2,0.2-0.2
				c0.4-0.5,0.9-0.5,1.2-0.9c0.5-0.5,0.2-1.6-0.2-2.1c-0.2-0.2-0.2-0.4-0.5-0.4c-0.7,0-1.4,0.4-1.9,0.7c-0.4,0.4-0.5,0.9-0.9,1.1
				c-1.1,0.9-1.9,2.1-3,3c-0.7,0.7-1.8,1.2-2.6,1.6c-0.4,0.2-1.1,0.7-0.9,1.2c0.4,0.5,1.8,0.5,2.3,0.7c0.2,0,0.2,0,0.2,0
				c0.2,0,0.4,0,0.5-0.2c1.1-0.7,2.1-1.6,3.2-2.3c0,0,0.2,0,0.2-0.2c0.4,1.8-0.5,3.2-0.5,4.9c0,0.5-0.2,1.2-0.2,1.8
				c0.2,0.5,0.9,1.2,1.2,1.6c0.2,0.2,0.4,0.2,0.5,0.2c1.1,0,0.9-2.6,0.9-3.3c0-0.4,0-0.7,0-1.1c0.2,0.2,0.5,0.5,0.9,0.5
				c0.2,0,0.2,0,0.2,0c0.4-0.2,0.7-0.5,0.9-0.7c0.5-0.4,0.9-0.5,1.2-0.7c0.4-0.2,0.5-0.4,0.7-0.7c0.2-0.2,0.5-0.4,0.5-0.5
				c0-0.2,0.4-0.5,0.5-0.7c0,0.5-0.2,0.9-0.2,1.4c-0.2,0.5-0.4,0.9-0.5,1.4c-0.2,0.5,0.4,0.9,0.7,1.2c0.4,0.4,0.5,0.5,0.9,0.7
				s0.7,0,1.1-0.5C231.5,25.1,231.6,24,231.5,23.3"/>
			<path class="st1" d="M236.6,16.6c0.2,0,0.2,0.2,0.2,0.2l0,0c0,0,0,0,0.2,0h0.2c0.4,0,0.5-0.2,0.7-0.2c0.5-0.2,0.9-0.4,1.4-0.5
				c0.4-0.2,0.9-0.4,1.2-0.4c0.2,0,0.4,0.2,0.5,0.2c0.4-0.2,0.5-0.4,0.7-0.5c0-0.2,0.5-0.7,0.4-0.9c-0.7-0.4-1.2-0.5-1.9-0.7
				c-0.4,0-0.7,0.2-1.1,0.4c-0.9,0.2-1.8,0.2-2.5,0.4c-0.7,0-1.6,0.2-1.4,1.1C235.2,16.1,235.9,16.4,236.6,16.6"/>
			<path class="st1" d="M244.3,17c-0.4-0.4-0.9-0.4-1.2-0.4c-0.5-0.2-0.9-0.2-1.6-0.2c-0.5,0-1.1,0.2-1.6,0.2
				c-1.1,0.2-2.3,0.7-3.3,0.9c-0.5,0.2-1.2-0.2-1.8,0.2c-0.5,0.5-0.5,1.2-0.5,1.9c0,0.5,0.2,0.7,0.7,0.7c0.7,0,1.2-0.2,1.9-0.4
				c0.2,0.2,0.2,0.5,0.2,0.7s0,0.4,0.2,0.5c0.2,1.6,0.4,3,0.2,4.6c0,0.5-0.2,0.7-0.5,0.9c-0.9,0.5-1.9,0.4-3,0.4
				c-0.7-0.2-1.6,0-2.3,0.2c-0.5,0.2-0.9,0.5-0.4,0.9c0.4,0.2,0.7,0.4,0.9,0.5c0.5,0.4,0.9,0.7,1.4,0.9c0.7,0.2,2.8,0.9,3.3,0.9
				c0.5,0.2,0.9,0.2,1.9,0.2c0.5,0,1.1-0.7,1.1-1.1c0-0.2,0-0.7-0.2-1.8c-0.2-1.4-0.2-2.8,0-4.2c0.2-1.1,0.2-2.3,0.4-3.3
				c0.2-0.2,0.2-0.5,0.2-0.5c0.4,0,0.5-0.2,0.9-0.2c0.9-0.2,1.8,0,2.6-0.2c0.4-0.2,0.7-0.2,1.1-0.4c0.4-0.2,0.5-0.2,0.5-0.4
				C245.2,18,244.7,17.1,244.3,17"/>
			<path class="st1" d="M275.6,27.5c-0.9-0.7-2.1-0.7-3.2-1.2c-1.6-0.9-3-1.4-4.4-2.5c-1.1-0.9-1.9-2.1-2.6-3.3
				c-0.5-0.7-1.1-1.4-1.6-2.1c1.2-0.2,2.6-0.2,3.9-0.4c0.5-0.2,1.9,0,2.3-0.5c0.5-0.5,0.5-1.6,0.4-2.1c-0.2-0.7-1.8-0.9-2.1-0.9
				c-1.1-0.2-2.1,0.2-3,0.4c-0.7,0.2-1.4,0.5-2.1,0.7c0.2-1.6,0.4-3,0.7-4.4c0.2-0.5,0.2-0.9,0-1.4C263.7,9.4,263.3,9,263,9
				c-0.5,0-1.8,0.4-1.4,1.1c0,0.2,0.2,0.4,0.2,0.4c0.2,1.2,0.2,2.3-0.2,3.5c-0.2,0.7-0.5,1.6-0.7,2.5c-0.5,0.2-0.9,0.4-1.2,0.4
				c-1.4,0.4-2.6,0.2-4,0.2c-0.7,0-2.1,0-2.1,1.1c0,0.7,0.4,1.6,0.7,1.8c0.2,0.2,0.5,0.2,0.7,0.2c1.2,0.2,2.6-0.7,3.7-0.9
				c0.5-0.2,1.2-0.4,1.8-0.4c-0.4,1.2-0.7,2.6-1.6,3.9c-0.9,1.6-2.3,2.8-3.7,3.7c-0.5,0.4-2.6,1.6-2.6,2.5c0.2,0.7-0.4,2.1,0.7,2.1
				c0.2,0,0.4,0,0.5-0.2c2.8-0.7,4.9-2.8,6.5-5.3c0.5-0.9,1.1-1.8,1.6-2.8c0.2-0.5,0.7-1.9,0.9-2.8c0.7,0.7,1.1,1.8,1.6,2.6
				c0.4,0.7,0.7,0.7,1.1,1.4c0.4,0.5,0.5,1.2,0.7,1.9c0.4,1.1,0.9,2.1,1.8,2.6c1.1,0.7,2.6,0.9,3.9,1.1c0.2,0,0.2,0,0.4,0
				c0.4,0,0.7,0,1.1-0.2s0.7-0.2,0.9-0.2c0.5-0.2,0.9-0.2,1.4-0.2c0.4,0,0.5-0.2,0.7-0.5C276.5,28.2,276,27.9,275.6,27.5"/>
			<path class="st1" d="M287.3,19.6c0-0.4,0-0.5,0-0.5c0.4-0.2,0.7-0.4,0.9-0.4c0.4-0.2,0.5-0.4,0.7-0.5c0.2-0.7,0.2-1.2,0.2-1.9
				c0-0.7-0.4-1.2-0.7-1.8c-0.4-0.4-0.5-0.9-0.9-1.1c-0.4-0.4-0.7-0.4-1.1-0.2c-0.2,0-0.7,0.2-0.7,0.4c0.2,1.1-0.4,2.6,0.4,3.7
				c0.4,0.5,0.9,1.1,0.9,1.8c-0.4,0-0.5,0.2-0.9,0.4c-1.2,0.4-2.1,1.6-3.2,2.3c-0.7,0.5-0.7,1.4-0.2,1.9c0.2,0.2,0.4,0.4,0.5,0.4
				c0.9,0.4,2.5-1.1,3-1.6C286.6,21.2,287.3,20.5,287.3,19.6"/>
			<path class="st1" d="M304.9,17c-0.4-0.2-2.8-0.4-3.9-0.5c0.2-0.5,0.4-0.9,0.4-1.1c0.2-0.5,0.4-1.1,0.4-1.6
				c0.2-0.5,0.2-1.1,0.4-1.6c0.2-0.4,0.4-0.7,0.4-1.2c0.2-0.5-0.2-0.7-0.5-0.9c-0.2-0.2-0.2-0.2-0.4-0.4c-0.4-0.4-0.7-0.5-1.1-0.5
				c-1.1,0-2.1,0.2-3.2,0.4c-0.4,0.2-0.9,0.4-0.7,0.9c0.2,0.4,0.4,0.5,0.4,0.5h0.2c0.4,0,2.1-0.5,2.3,0.2c0,0.2,0,0.4,0,0.5h-0.2
				c-0.7,0.2-1.9-0.2-2.5,0.5c-0.2,0.2-0.2,0.4-0.2,0.4c0.2,0.2,0.4,0.4,0.5,0.4c0.2,0.2,0.5,0.2,0.7,0.2c0.4,0,0.7-0.2,1.1-0.2
				c-0.2,0.4-0.2,0.5-0.2,0.7c-0.5,0.2-1.1,0.2-1.6,0.2c-0.4,0-0.5,0-0.5,0.4c-0.2,0.5,0,0.7,0.4,1.1c0.4,0.4,0.7,0.4,0.9,0.4
				s0.2,0,0.4,0c0,0.2-0.2,0.2-0.2,0.4c0,0.2-0.2,0.4-0.2,0.4c-0.5,0-1.1,0.2-1.6,0.2c0-0.2,0-0.2,0-0.2c0-0.5-0.4-0.9-0.7-1.2
				c0-0.2-0.2-0.2-0.4-0.4c0.2-0.4,0.4-0.7,0.5-0.9c0.2-0.4,0-0.5-0.2-0.7c0.4-0.2,0.5-0.5,0.5-0.7c0-0.4-0.7-0.9-0.9-1.1h0.2
				c0.5-0.4,0.9-0.9,0.7-1.8c0-0.2,0-0.2,0-0.2c-0.4-0.4-1.2-1.1-1.8-0.7c-0.4,0.2-0.4,0.5-0.5,0.7c-0.2,0.2-0.2,0.4-0.2,0.5
				s0,0.4,0,0.5c-0.7,0-1.2,0.4-1.9,0.4c0-0.4-0.2-0.5-0.2-0.7c-0.4-0.5-0.7-0.7-1.1-0.9c-0.2,0-0.2,0-0.4,0c-0.4,0-0.5,0.2-0.7,0.2
				c-0.2,0.2-0.4,0.5-0.5,1.1l-0.2,0.2c-0.4,0.7,0.2,1.4,0.4,2.1c0,0.7,0,1.2,0.2,1.9c0.2,0.5,0.2,1.1,0.4,1.8c0,0.2,0,1.1,0,1.6
				l0,0c-0.7-0.2-1.1,0.9-1.1,0.9c0.2,0.4,1.1,0.5,1.6,0.5c0.7,0.2,1.6,0,2.3-0.2c1.6-0.4,2.8-0.9,4.4-1.1s3.2,0.2,4.8,0.2
				c0.4,0,0.9,0.2,0.9,0.2h0.2V19c-0.2,0.7-1.8,1.8-0.7,2.5c0.2,0.2,0.4,0.4,0.5,0.4c0.4,0.2,1.9-0.5,2.6-1.1
				c0.7-0.5,1.6-1.1,1.9-1.8C307,17.8,305.4,17.3,304.9,17 M291.3,15.9c0-0.5,0-1.2,0-1.8l0,0c0.2,0.2,0.5,0.2,0.7,0.4
				c0.4,0.2,0.4,0.4,0.5,0.5C292.4,15.4,291.8,15.7,291.3,15.9 M293.6,13.8c-0.7-0.2-1.2-0.4-2.1-0.2c-0.2,0-0.2,0.2-0.2,0.4
				c0-0.2,0-0.5,0-0.7c0.5,0,1.1-0.4,1.6-0.5c0.2-0.2,0.5-0.2,0.7-0.4c0.2,0.2,0.2,0.2,0.4,0.4c0.2,0.2,0.2,0.2,0.4,0.4
				c-0.2,0.2-0.4,0.5-0.4,0.5C293.8,13.8,293.8,13.8,293.6,13.8C293.8,13.8,293.8,13.8,293.6,13.8 M292,11.3L292,11.3
				c0.2,0.2,0.4,0.4,0.5,0.4l-0.2,0.2c-0.4,0.4-0.7,0.5-0.9,0.7c0.2-0.5,0.2-0.9,0.2-1.4C291.8,11.2,291.8,11.3,292,11.3
				 M291.7,17.8L291.7,17.8c0-0.4,0-0.5-0.2-0.7c0.2,0.2,0.4,0.2,0.5,0.2s0.2,0,0.2,0c0.5-0.2,0.9-0.5,1.2-0.7
				c0.2,0,0.2-0.2,0.4-0.2l0.2,0.2c0.2,0.2,0.4,0.5,0.5,0.7C293.6,17.5,292.5,17.8,291.7,17.8"/>
			<path class="st1" d="M301.9,22.1c-0.4,0-0.7,0.2-1.1,0.2c-0.9,0.2-1.6,0.2-2.5,0.4c-0.4,0-0.5,0.2-0.9,0.2c0.2,0,0.2-0.2,0.2-0.2
				c0.5-0.5,1.1-0.9,1.8-1.4c0.4-0.2,0.7-0.4,0.7-0.7c0-0.4-0.4-0.7-0.7-1.1c-0.5-0.4-1.4-0.4-2.1-0.4c-0.9,0-1.8,0.4-2.6,0.5
				c-1.6,0.5-3.2,0.9-4.9,1.1c-0.5,0.2-1.1,0.2-1.2,0.5c-0.2,0.2,0,0.5,0,0.5c0.4,0.5,1.4,0.9,1.9,0.9c1.1,0.2,2.1-0.5,3.2-0.9
				c0.4-0.2,3.3-1.8,3.3-0.9c0,0.4-0.4,1.1-0.7,1.4l-0.2,0.2c-0.4-0.4-0.7-0.5-0.9-0.5c-0.4-0.2-0.9,0.2-1.1,0.5
				c0,0.2,0.2,0.2,0.2,0.4c0,0,0,0,0.2,0.2s0.4,0.5,0.4,0.7c-1.6,0.2-2.6,0.5-4.2,0.9c-0.5,0.2-1.6,0.4-1.9,0.4s-1.2-0.2-1.8,0.2
				s-0.7,0.5-0.7,1.1c0,0.4,0.4,0.4,0.5,0.5c0.4,0.2,0.5,0.4,0.9,0.4c0.7-0.2,1.6-0.4,2.1-0.5c0.9-0.2,1.2-0.2,1.9-0.4
				c1.1-0.2,2.3-0.4,3.3-0.4c0,0.2,0,0.4,0,0.5c0,0.2,0,0.4,0,0.5c0,0.4,0,0.7,0,1.2c0,0.7-0.2,0.9-0.4,1.1v0.2
				c-0.4,0.4-0.9,0.5-1.6,0.7c-1.2,0.4-2.8,0-4.2,0c-0.2,0-0.4,0-0.5,0c-0.4,0-0.4,0.2-0.4,0.4c0,1.1,1.8,1.2,2.5,1.8
				c0.9,0.4,1.8,0.5,2.6,0.7c0.2,0.2,0.4,0.2,0.5,0.2c1.2,0.4,2.1-0.2,2.8-1.2c0.5-0.7,0.5-1.6,0.5-2.3c0.2-1.2,0-2.5,0-3.7l0,0
				c1.2-0.2,2.6-0.4,4-0.4c1.1,0,2.1,0.5,2.8-0.4C304.3,23.1,302.6,22.1,301.9,22.1"/>
		</g>
		<g>
			<path class="st1" d="M11.4,9L11.4,9h25.7l0,0c1.2,0,2.1-0.9,2.1-2.1s-0.9-2.3-2.1-2.3l0,0h-5.5V2.7l0,0l0,0
				c0-1.2-1.1-2.3-2.3-2.3c-1.2,0-2.3,1.1-2.3,2.3l0,0l0,0v1.9h-5.5V2.7l0,0c0-1.2-1.1-2.3-2.3-2.3c-1.2,0-2.3,1.1-2.3,2.3l0,0l0,0
				v1.9h-5.5l0,0c-1.2,0-2.1,0.9-2.1,2.1C9.3,8,10.4,9,11.4,9"/>
			<path class="st1" d="M40.7,37.2L40.7,37.2H23.9v-1.9c0-0.7,0.2-0.7,0.7-0.7h3.2c1.2,0,1.8-0.7,1.8-1.6v-1.2
				c0-0.9-0.7-1.2-1.6-1.2h-6.7c-1.4,0-1.9,0.9-1.9,1.8v5.1H8.3c0,0,0,0-0.2,0c-1.2,0-2.3,1.1-2.3,2.3S6.9,42,8.1,42l0,0l0,0h32.4
				l0,0c1.2,0,2.3-1.1,2.3-2.3C42.9,38.3,41.9,37.2,40.7,37.2"/>
			<path class="st1" d="M32.7,43.7L32.7,43.7H15.8l0,0c-1.2,0-2.3,1.1-2.3,2.3s1.1,2.3,2.3,2.3H16h16.5h0.2c1.2,0,2.3-1.1,2.3-2.3
				S34,43.7,32.7,43.7"/>
			<path class="st1" d="M46.6,24L46.6,24H45v-7c0-3.5-2.1-6-5.5-6H25.7v2.3c0,2.6-1.6,4.4-5.5,4.4c-1.6,0-1.9,0.5-1.9,1.1V20
				c0,0.9,0.5,1.2,2.3,1.2h6c2.6,0,3.2-0.5,3.2-3V15h3.9v3.5c0,3.7-1.1,5.8-4.8,5.8L18,24.2c-2.5,0-3.2-1.8-3.2-3v-3.3
				c0-2.6,1.2-3.5,3.5-3.5s3.5-0.7,3.5-2.3V11H6.3l0,0l0,0l0,0c-1.2,0-2.1,0.9-2.1,2.1s0.9,2.1,2.1,2.1l0,0h4.2v2.1H3l0,0
				c-1.2,0-2.1,0.9-2.1,2.1s0.9,2.1,2.1,2.1l0,0h7.6v2.3H2.3c0,0,0,0-0.2,0c-1.2,0-2.1,0.9-2.1,2.1C0,27.2,0.9,28,2.1,28l0,0l0,0
				h29.6c4.6,0,6.2-3.9,6.2-8.1V15h2.8v11.4c0,0.7,0.7,1.9,1.8,1.9h4.4l0,0c1.1,0,2.1-0.9,2.1-2.1C48.8,25.1,47.9,24,46.6,24"/>
			<path class="st1" d="M15.1,32.4V32c0-0.7,0.2-1.8,0.5-1.8H4.2l0,0l0,0c-1.2,0-2.3,1.1-2.3,2.3c0,1.2,1.1,2.3,2.3,2.3
				c0,0,0,0,0.2,0h11.3C15,34.9,15.1,33.2,15.1,32.4"/>
			<path class="st1" d="M44.5,30.3L44.5,30.3L44.5,30.3H33.1c0.4,0.2,0.5,1.1,0.5,1.8v0.2c0,0.7,0.2,2.5-0.7,2.6h11.4c0,0,0,0,0.2,0
				c1.2,0,2.3-1.1,2.3-2.3C46.8,31.4,45.8,30.3,44.5,30.3"/>
		</g>
		<line class="st2" x1="333.5" y1="8.8" x2="333.5" y2="46.9"/>
		<g>
			<path d="M366.1,46h-2l-0.6-1.8h-2.9L360,46h-2l2.9-8.1h2.2L366.1,46z M363.1,42.8l-0.9-2.7c-0.1-0.2-0.1-0.4-0.1-0.7l0,0
				c0,0.2-0.1,0.5-0.1,0.7l-0.9,2.7H363.1z"/>
			<path d="M373.2,46h-1.8v-0.8l0,0c-0.4,0.6-1,0.9-1.8,0.9c-0.7,0-1.3-0.3-1.7-0.8c-0.4-0.5-0.7-1.2-0.7-2.1c0-1,0.2-1.7,0.7-2.3
				s1.1-0.9,1.9-0.9c0.7,0,1.3,0.3,1.6,0.8l0,0v-3.4h1.8V46z M371.4,43.2v-0.4c0-0.4-0.1-0.7-0.3-0.9c-0.2-0.2-0.5-0.4-0.9-0.4
				s-0.7,0.2-0.9,0.5c-0.2,0.3-0.3,0.7-0.3,1.3c0,0.5,0.1,0.9,0.3,1.2c0.2,0.3,0.5,0.4,0.9,0.4s0.7-0.1,0.9-0.4
				C371.3,44,371.4,43.6,371.4,43.2z"/>
			<path d="M384.4,46h-1.8v-3.3c0-0.8-0.3-1.3-0.9-1.3c-0.3,0-0.5,0.1-0.7,0.4c-0.2,0.3-0.3,0.6-0.3,0.9V46H379v-3.3
				c0-0.8-0.3-1.2-0.9-1.2c-0.3,0-0.6,0.1-0.7,0.4c-0.2,0.2-0.3,0.6-0.3,1V46h-1.8v-5.8h1.8v0.9l0,0c0.2-0.3,0.4-0.6,0.8-0.8
				c0.3-0.2,0.7-0.3,1.1-0.3c0.8,0,1.4,0.4,1.7,1.1c0.4-0.7,1.1-1.1,1.9-1.1c1.3,0,1.9,0.8,1.9,2.3V46H384.4z"/>
			<path d="M387.3,39.3c-0.3,0-0.5-0.1-0.7-0.3s-0.3-0.4-0.3-0.7s0.1-0.5,0.3-0.7c0.2-0.2,0.4-0.3,0.7-0.3c0.3,0,0.6,0.1,0.7,0.3
				s0.3,0.4,0.3,0.7s-0.1,0.5-0.3,0.7C387.9,39.2,387.6,39.3,387.3,39.3z M388.2,46h-1.8v-5.8h1.8V46z"/>
			<path d="M389.9,45.8v-1.4c0.3,0.2,0.6,0.3,0.9,0.4c0.3,0.1,0.6,0.1,0.8,0.1c0.3,0,0.6,0,0.7-0.1c0.2-0.1,0.3-0.2,0.3-0.4
				c0-0.1,0-0.2-0.1-0.3s-0.2-0.1-0.3-0.2c-0.1-0.1-0.3-0.1-0.4-0.2c-0.2,0-0.3-0.1-0.4-0.2c-0.2-0.1-0.4-0.2-0.6-0.3
				s-0.3-0.2-0.4-0.3s-0.2-0.3-0.3-0.5c-0.1-0.2-0.1-0.4-0.1-0.6c0-0.3,0.1-0.6,0.2-0.8s0.3-0.4,0.6-0.6c0.2-0.1,0.5-0.3,0.8-0.3
				c0.3-0.1,0.6-0.1,0.9-0.1s0.5,0,0.8,0.1c0.3,0,0.5,0.1,0.8,0.2v1.4c-0.2-0.1-0.5-0.2-0.7-0.3c-0.3-0.1-0.5-0.1-0.8-0.1
				c-0.1,0-0.2,0-0.3,0c-0.1,0-0.2,0.1-0.3,0.1s-0.1,0.1-0.2,0.2c0,0.1-0.1,0.1-0.1,0.2c0,0.1,0,0.2,0.1,0.3s0.2,0.1,0.3,0.2
				c0.1,0.1,0.2,0.1,0.4,0.1c0.1,0,0.3,0.1,0.4,0.1c0.2,0.1,0.5,0.2,0.6,0.3c0.2,0.1,0.4,0.2,0.5,0.3s0.2,0.3,0.3,0.5
				c0.1,0.2,0.1,0.4,0.1,0.6c0,0.3-0.1,0.6-0.2,0.9c-0.1,0.2-0.3,0.4-0.6,0.6c-0.2,0.2-0.5,0.3-0.9,0.3s-0.7,0.1-1,0.1
				C391.1,46.1,390.5,46,389.9,45.8z"/>
			<path d="M395.6,45.8v-1.4c0.3,0.2,0.6,0.3,0.9,0.4c0.3,0.1,0.6,0.1,0.8,0.1c0.3,0,0.6,0,0.7-0.1c0.2-0.1,0.3-0.2,0.3-0.4
				c0-0.1,0-0.2-0.1-0.3s-0.2-0.1-0.3-0.2c-0.1-0.1-0.3-0.1-0.4-0.2c-0.2,0-0.3-0.1-0.4-0.2c-0.2-0.1-0.4-0.2-0.6-0.3
				s-0.3-0.2-0.4-0.3s-0.2-0.3-0.3-0.5c-0.1-0.2-0.1-0.4-0.1-0.6c0-0.3,0.1-0.6,0.2-0.8s0.3-0.4,0.6-0.6s0.5-0.3,0.8-0.3
				c0.3-0.1,0.6-0.1,0.9-0.1s0.5,0,0.8,0.1c0.3,0,0.5,0.1,0.8,0.2v1.4c-0.2-0.1-0.5-0.2-0.7-0.3c-0.3-0.1-0.5-0.1-0.8-0.1
				c-0.1,0-0.2,0-0.3,0c-0.1,0-0.2,0.1-0.3,0.1s-0.1,0.1-0.2,0.2c0,0.1-0.1,0.1-0.1,0.2c0,0.1,0,0.2,0.1,0.3s0.2,0.1,0.3,0.2
				c0.1,0.1,0.2,0.1,0.4,0.1c0.1,0,0.3,0.1,0.4,0.1c0.2,0.1,0.5,0.2,0.6,0.3c0.2,0.1,0.4,0.2,0.5,0.3s0.2,0.3,0.3,0.5
				c0.1,0.2,0.1,0.4,0.1,0.6c0,0.3-0.1,0.6-0.2,0.9c-0.1,0.2-0.3,0.4-0.6,0.6c-0.2,0.2-0.5,0.3-0.9,0.3s-0.7,0.1-1,0.1
				C396.7,46.1,396.1,46,395.6,45.8z"/>
			<path d="M402.5,39.3c-0.3,0-0.5-0.1-0.7-0.3s-0.3-0.4-0.3-0.7s0.1-0.5,0.3-0.7c0.2-0.2,0.4-0.3,0.7-0.3c0.3,0,0.6,0.1,0.7,0.3
				s0.3,0.4,0.3,0.7s-0.1,0.5-0.3,0.7C403.1,39.2,402.8,39.3,402.5,39.3z M403.4,46h-1.8v-5.8h1.8V46z"/>
			<path d="M408.3,46.1c-1,0-1.7-0.3-2.3-0.8c-0.6-0.5-0.8-1.3-0.8-2.2c0-1,0.3-1.7,0.9-2.2s1.3-0.8,2.3-0.8s1.7,0.3,2.3,0.8
				c0.5,0.5,0.8,1.3,0.8,2.1c0,1-0.3,1.7-0.8,2.3C410,45.8,409.2,46.1,408.3,46.1z M408.3,41.4c-0.4,0-0.7,0.1-1,0.4
				c-0.2,0.3-0.3,0.7-0.3,1.2c0,1.1,0.4,1.7,1.3,1.7s1.3-0.6,1.3-1.7C409.6,42,409.2,41.4,408.3,41.4z"/>
			<path d="M418.7,46H417v-3.2c0-0.9-0.3-1.3-1-1.3c-0.3,0-0.6,0.1-0.8,0.4c-0.2,0.2-0.3,0.5-0.3,0.9V46h-1.8v-5.8h1.8v0.9l0,0
				c0.4-0.7,1-1.1,1.9-1.1c1.3,0,1.9,0.8,1.9,2.4V46z"/>
			<path d="M420.4,45.8v-1.4c0.3,0.2,0.6,0.3,0.9,0.4c0.3,0.1,0.6,0.1,0.8,0.1c0.3,0,0.6,0,0.7-0.1c0.2-0.1,0.3-0.2,0.3-0.4
				c0-0.1,0-0.2-0.1-0.3s-0.2-0.1-0.3-0.2c-0.1-0.1-0.3-0.1-0.4-0.2c-0.2,0-0.3-0.1-0.4-0.2c-0.2-0.1-0.4-0.2-0.6-0.3
				s-0.3-0.2-0.4-0.3s-0.2-0.3-0.3-0.5c-0.1-0.2-0.1-0.4-0.1-0.6c0-0.3,0.1-0.6,0.2-0.8s0.3-0.4,0.6-0.6c0.2-0.1,0.5-0.3,0.8-0.3
				c0.3-0.1,0.6-0.1,0.9-0.1s0.5,0,0.8,0.1c0.3,0,0.5,0.1,0.8,0.2v1.4c-0.2-0.1-0.5-0.2-0.7-0.3c-0.3-0.1-0.5-0.1-0.8-0.1
				c-0.1,0-0.2,0-0.3,0c-0.1,0-0.2,0.1-0.3,0.1s-0.1,0.1-0.2,0.2c0,0.1-0.1,0.1-0.1,0.2c0,0.1,0,0.2,0.1,0.3s0.2,0.1,0.3,0.2
				c0.1,0.1,0.2,0.1,0.4,0.1c0.1,0,0.3,0.1,0.4,0.1c0.2,0.1,0.5,0.2,0.6,0.3c0.2,0.1,0.4,0.2,0.5,0.3s0.2,0.3,0.3,0.5
				c0.1,0.2,0.1,0.4,0.1,0.6c0,0.3-0.1,0.6-0.2,0.9c-0.1,0.2-0.3,0.4-0.6,0.6c-0.2,0.2-0.5,0.3-0.9,0.3s-0.7,0.1-1,0.1
				C421.5,46.1,420.9,46,420.4,45.8z"/>
			<path d="M432.8,37.9v1.4h-0.7v5.3h0.7V46h-3.2v-1.4h0.7v-5.3h-0.7v-1.4C429.6,37.9,432.8,37.9,432.8,37.9z"/>
			<path d="M440,46h-1.8v-3.2c0-0.9-0.3-1.3-1-1.3c-0.3,0-0.6,0.1-0.8,0.4c-0.2,0.2-0.3,0.5-0.3,0.9V46h-1.8v-5.8h1.8v0.9l0,0
				c0.4-0.7,1-1.1,1.9-1.1c1.3,0,1.9,0.8,1.9,2.4L440,46L440,46z"/>
			<path d="M445.8,38.8c-0.2-0.1-0.4-0.1-0.7-0.1c-0.6,0-0.9,0.3-0.9,0.9v0.6h1.3v1.3h-1.3V46h-1.8v-4.5h-1v-1.3h1v-0.7
				c0-0.7,0.2-1.2,0.6-1.6c0.4-0.4,1-0.6,1.8-0.6c0.4,0,0.7,0,0.9,0.1v1.4C445.7,38.8,445.8,38.8,445.8,38.8z"/>
			<path d="M449.8,46.1c-1,0-1.7-0.3-2.3-0.8c-0.6-0.5-0.8-1.3-0.8-2.2c0-1,0.3-1.7,0.9-2.2s1.3-0.8,2.3-0.8s1.7,0.3,2.3,0.8
				c0.5,0.5,0.8,1.3,0.8,2.1c0,1-0.3,1.7-0.8,2.3C451.5,45.8,450.7,46.1,449.8,46.1z M449.8,41.4c-0.4,0-0.7,0.1-1,0.4
				c-0.2,0.3-0.3,0.7-0.3,1.2c0,1.1,0.4,1.7,1.3,1.7s1.3-0.6,1.3-1.7C451.1,42,450.7,41.4,449.8,41.4z"/>
			<path d="M458.4,41.8c-0.2-0.1-0.5-0.2-0.8-0.2c-0.4,0-0.7,0.1-0.9,0.4c-0.2,0.3-0.3,0.7-0.3,1.2V46h-1.8v-5.8h1.8v1.1l0,0
				c0.3-0.8,0.8-1.2,1.5-1.2c0.2,0,0.3,0,0.4,0.1L458.4,41.8L458.4,41.8z"/>
			<path d="M469,46h-1.8v-3.3c0-0.8-0.3-1.3-0.9-1.3c-0.3,0-0.5,0.1-0.7,0.4c-0.2,0.3-0.3,0.6-0.3,0.9V46h-1.8v-3.3
				c0-0.8-0.3-1.2-0.9-1.2c-0.3,0-0.6,0.1-0.7,0.4c-0.2,0.2-0.3,0.6-0.3,1V46h-1.8v-5.8h1.8v0.9l0,0c0.2-0.3,0.4-0.6,0.8-0.8
				c0.3-0.2,0.7-0.3,1.1-0.3c0.8,0,1.4,0.4,1.7,1.1c0.4-0.7,1.1-1.1,1.9-1.1c1.3,0,1.9,0.8,1.9,2.3L469,46L469,46z"/>
			<path d="M475.8,46h-1.7v-0.8l0,0c-0.4,0.6-1,1-1.7,1c-0.6,0-1-0.2-1.3-0.5s-0.5-0.7-0.5-1.3c0-1.1,0.7-1.8,2-1.9l1.6-0.2
				c0-0.6-0.3-0.9-1-0.9s-1.3,0.2-2,0.6v-1.3c0.2-0.1,0.6-0.2,1-0.3s0.8-0.1,1.2-0.1c1.6,0,2.5,0.8,2.5,2.5V46H475.8z M474.1,43.6
				v-0.4l-1.1,0.1c-0.6,0.1-0.9,0.3-0.9,0.8c0,0.2,0.1,0.4,0.2,0.5s0.3,0.2,0.6,0.2c0.3,0,0.6-0.1,0.8-0.3
				C474,44.3,474.1,44,474.1,43.6z"/>
			<path d="M481.3,45.9c-0.3,0.1-0.7,0.2-1.2,0.2c-1.3,0-1.9-0.7-1.9-2v-2.6h-0.9v-1.3h0.9V39l1.8-0.5v1.8h1.3v1.3H480v2.3
				c0,0.6,0.2,0.9,0.7,0.9c0.2,0,0.4-0.1,0.6-0.2L481.3,45.9L481.3,45.9z"/>
			<path d="M483.8,39.3c-0.3,0-0.5-0.1-0.7-0.3s-0.3-0.4-0.3-0.7s0.1-0.5,0.3-0.7c0.2-0.2,0.4-0.3,0.7-0.3c0.3,0,0.6,0.1,0.7,0.3
				s0.3,0.4,0.3,0.7s-0.1,0.5-0.3,0.7C484.4,39.2,484.1,39.3,483.8,39.3z M484.7,46h-1.8v-5.8h1.8V46z"/>
			<path d="M489.5,46.1c-1,0-1.7-0.3-2.3-0.8c-0.6-0.5-0.8-1.3-0.8-2.2c0-1,0.3-1.7,0.9-2.2s1.3-0.8,2.3-0.8s1.7,0.3,2.3,0.8
				c0.5,0.5,0.8,1.3,0.8,2.1c0,1-0.3,1.7-0.8,2.3C491.3,45.8,490.5,46.1,489.5,46.1z M489.6,41.4c-0.4,0-0.7,0.1-1,0.4
				c-0.2,0.3-0.3,0.7-0.3,1.2c0,1.1,0.4,1.7,1.3,1.7s1.3-0.6,1.3-1.7C490.9,42,490.4,41.4,489.6,41.4z"/>
			<path d="M500,46h-1.8v-3.2c0-0.9-0.3-1.3-1-1.3c-0.3,0-0.6,0.1-0.8,0.4c-0.2,0.2-0.3,0.5-0.3,0.9V46h-1.8v-5.8h1.8v0.9l0,0
				c0.4-0.7,1-1.1,1.9-1.1c1.3,0,1.9,0.8,1.9,2.4L500,46L500,46z"/>
		</g>
		<g>
			<path class="st1" d="M67.7,46.5h-2.1l-3.8-5.7c-0.2-0.3-0.4-0.6-0.5-0.8l0,0c0,0.3,0.1,0.8,0.1,1.5v5h-1.9v-9.1h2.2l3.6,5.5
				c0.2,0.3,0.3,0.5,0.5,0.7l0,0c0-0.2-0.1-0.6-0.1-1.3v-5h1.9L67.7,46.5L67.7,46.5z"/>
			<path class="st1" d="M76.1,46.5h-1.9v-0.9l0,0c-0.4,0.7-1.1,1.1-1.9,1.1c-0.6,0-1.1-0.2-1.5-0.5c-0.4-0.4-0.5-0.8-0.5-1.4
				c0-1.3,0.7-2,2.2-2.2l1.8-0.2c0-0.7-0.4-1.1-1.2-1.1c-0.8,0-1.5,0.2-2.2,0.7v-1.5c0.3-0.1,0.7-0.3,1.1-0.4
				c0.5-0.1,0.9-0.2,1.3-0.2c1.9,0,2.8,0.9,2.8,2.8C76.1,42.7,76.1,46.5,76.1,46.5z M74.2,43.9v-0.4L73,43.6c-0.7,0.1-1,0.4-1,0.9
				c0,0.2,0.1,0.4,0.2,0.6c0.2,0.1,0.4,0.2,0.6,0.2c0.4,0,0.7-0.1,0.9-0.4C74.1,44.6,74.2,44.3,74.2,43.9z"/>
			<path class="st1" d="M82.8,46.5c-0.3,0.2-0.7,0.2-1.3,0.2c-1.4,0-2.1-0.7-2.1-2.2v-3h-1.1V40h1.1v-1.4l2-0.6v2h1.5v1.5h-1.5v2.6
				c0,0.7,0.3,1,0.8,1c0.2,0,0.4-0.1,0.7-0.2L82.8,46.5L82.8,46.5z"/>
			<path class="st1" d="M86,39c-0.3,0-0.6-0.1-0.8-0.3c-0.2-0.2-0.3-0.4-0.3-0.7s0.1-0.5,0.3-0.7c0.2-0.2,0.5-0.3,0.8-0.3
				s0.6,0.1,0.8,0.3c0.2,0.2,0.3,0.4,0.3,0.7s-0.1,0.6-0.3,0.7S86.4,39,86,39z M87,46.5h-2V40h2V46.5z"/>
			<path class="st1" d="M93,46.7c-1.1,0-1.9-0.3-2.6-0.9c-0.6-0.6-0.9-1.4-0.9-2.5s0.3-1.9,1-2.5c0.6-0.6,1.5-0.9,2.6-0.9
				s1.9,0.3,2.5,0.9c0.6,0.6,0.9,1.4,0.9,2.4c0,1.1-0.3,1.9-0.9,2.6C94.9,46.4,94.1,46.7,93,46.7z M93,41.4c-0.5,0-0.8,0.2-1.1,0.5
				c-0.3,0.3-0.4,0.8-0.4,1.4c0,1.2,0.5,1.9,1.5,1.9s1.4-0.6,1.4-1.9C94.5,42,94,41.4,93,41.4z"/>
			<path class="st1" d="M105.2,46.5h-2v-3.6c0-1-0.4-1.5-1.1-1.5c-0.3,0-0.6,0.1-0.9,0.4c-0.2,0.3-0.3,0.6-0.3,1v3.7h-2V40h2v1l0,0
				c0.5-0.8,1.2-1.2,2.1-1.2c1.4,0,2.2,0.9,2.2,2.7C105.2,42.5,105.2,46.5,105.2,46.5z"/>
			<path class="st1" d="M113.4,46.5h-1.9v-0.9l0,0c-0.4,0.7-1.1,1.1-1.9,1.1c-0.6,0-1.1-0.2-1.5-0.5c-0.4-0.4-0.5-0.8-0.5-1.4
				c0-1.3,0.7-2,2.2-2.2l1.8-0.2c0-0.7-0.4-1.1-1.2-1.1c-0.8,0-1.5,0.2-2.2,0.7v-1.5c0.3-0.1,0.7-0.3,1.1-0.4
				c0.5-0.1,0.9-0.2,1.3-0.2c1.9,0,2.8,0.9,2.8,2.8C113.4,42.7,113.4,46.5,113.4,46.5z M111.5,43.9v-0.4l-1.2,0.2
				c-0.7,0.1-1,0.4-1,0.9c0,0.2,0.1,0.4,0.2,0.6c0.2,0.1,0.4,0.2,0.6,0.2c0.4,0,0.7-0.1,0.9-0.4C111.4,44.6,111.5,44.3,111.5,43.9z"
				/>
			<path class="st1" d="M118.1,46.5h-2v-9.6h2V46.5z"/>
			<path class="st1" d="M132.2,39.1h-2.6v7.4h-2.1v-7.4H125v-1.7h7.2V39.1z"/>
			<path class="st1" d="M139.8,46.5h-1.9v-0.9l0,0c-0.4,0.7-1.1,1.1-1.9,1.1c-0.6,0-1.1-0.2-1.5-0.5c-0.4-0.4-0.5-0.8-0.5-1.4
				c0-1.3,0.7-2,2.2-2.2l1.8-0.2c0-0.7-0.4-1.1-1.2-1.1s-1.5,0.2-2.2,0.7v-1.5c0.3-0.1,0.7-0.3,1.1-0.4c0.5-0.1,0.9-0.2,1.3-0.2
				c1.9,0,2.8,0.9,2.8,2.8L139.8,46.5L139.8,46.5z M137.9,43.9v-0.4l-1.2,0.2c-0.7,0.1-1,0.4-1,0.9c0,0.2,0.1,0.4,0.2,0.6
				c0.2,0.1,0.4,0.2,0.6,0.2c0.4,0,0.7-0.1,0.9-0.4C137.8,44.6,137.9,44.3,137.9,43.9z"/>
			<path class="st1" d="M143.5,39c-0.3,0-0.6-0.1-0.8-0.3s-0.3-0.4-0.3-0.7s0.1-0.5,0.3-0.7s0.5-0.3,0.8-0.3s0.6,0.1,0.8,0.3
				s0.3,0.4,0.3,0.7s-0.1,0.6-0.3,0.7S143.9,39,143.5,39z M144.5,46.5h-2V40h2V46.5z"/>
			<path class="st1" d="M156.8,40l-1.9,6.5h-2.1l-1-3.8c-0.1-0.3-0.1-0.5-0.1-0.8l0,0c0,0.3-0.1,0.6-0.1,0.8l-1,3.8h-2.1l-1.8-6.5h2
				l0.9,4.2c0,0.2,0.1,0.4,0.1,0.7l0,0c0-0.3,0.1-0.5,0.1-0.7l1.1-4.2h1.9l1,4.2c0,0.1,0.1,0.4,0.1,0.7l0,0c0-0.2,0.1-0.5,0.1-0.7
				l0.8-4.2H156.8z"/>
			<path class="st1" d="M164.3,46.5h-1.9v-0.9l0,0c-0.4,0.7-1.1,1.1-1.9,1.1c-0.6,0-1.1-0.2-1.5-0.5c-0.4-0.4-0.5-0.8-0.5-1.4
				c0-1.3,0.7-2,2.2-2.2l1.8-0.2c0-0.7-0.4-1.1-1.2-1.1s-1.5,0.2-2.2,0.7v-1.5c0.3-0.1,0.7-0.3,1.1-0.4c0.5-0.1,0.9-0.2,1.3-0.2
				c1.9,0,2.8,0.9,2.8,2.8L164.3,46.5L164.3,46.5z M162.4,43.9v-0.4l-1.2,0.2c-0.7,0.1-1,0.4-1,0.9c0,0.2,0.1,0.4,0.2,0.6
				c0.2,0.1,0.4,0.2,0.6,0.2c0.4,0,0.7-0.1,0.9-0.4C162.3,44.6,162.4,44.3,162.4,43.9z"/>
			<path class="st1" d="M173.3,46.5h-2v-3.6c0-1-0.4-1.5-1.1-1.5c-0.3,0-0.6,0.1-0.9,0.4c-0.2,0.3-0.3,0.6-0.3,1v3.7h-2V40h2v1l0,0
				c0.5-0.8,1.2-1.2,2.1-1.2c1.4,0,2.2,0.9,2.2,2.7V46.5z"/>
			<path class="st1" d="M188.3,42.6c0,2.7-1.3,4.1-3.8,4.1s-3.7-1.3-3.7-4v-5.3h2.1v5.3c0,1.5,0.6,2.2,1.7,2.2
				c1.1,0,1.7-0.7,1.7-2.1v-5.4h2.1v5.2H188.3z"/>
			<path class="st1" d="M197.5,46.5h-2v-3.6c0-1-0.4-1.5-1.1-1.5c-0.3,0-0.6,0.1-0.9,0.4c-0.2,0.3-0.3,0.6-0.3,1v3.7h-2V40h2v1l0,0
				c0.5-0.8,1.2-1.2,2.1-1.2c1.4,0,2.2,0.9,2.2,2.7V46.5z"/>
			<path class="st1" d="M201.3,39c-0.3,0-0.6-0.1-0.8-0.3s-0.3-0.4-0.3-0.7s0.1-0.5,0.3-0.7s0.5-0.3,0.8-0.3s0.6,0.1,0.8,0.3
				s0.3,0.4,0.3,0.7s-0.1,0.6-0.3,0.7S201.6,39,201.3,39z M202.3,46.5h-2V40h2V46.5z"/>
			<path class="st1" d="M211.3,40l-2.4,6.5h-2.3l-2.3-6.5h2.1l1.1,4c0.1,0.5,0.2,0.8,0.2,1.2l0,0c0-0.3,0.1-0.7,0.2-1.1l1.2-4h2.2
				V40z"/>
			<path class="st1" d="M219.1,43.8h-4.2c0.1,0.9,0.7,1.4,1.8,1.4c0.7,0,1.3-0.2,1.9-0.5v1.4c-0.6,0.3-1.4,0.5-2.3,0.5
				c-1.1,0-1.9-0.3-2.4-0.9c-0.6-0.6-0.9-1.4-0.9-2.4c0-1.1,0.3-1.9,0.9-2.6c0.6-0.6,1.4-0.9,2.3-0.9c0.9,0,1.7,0.3,2.2,0.8
				c0.5,0.6,0.8,1.3,0.8,2.3v0.9H219.1z M217.3,42.6c0-0.9-0.4-1.4-1.1-1.4c-0.3,0-0.6,0.1-0.8,0.4c-0.2,0.3-0.4,0.6-0.4,1H217.3z"
				/>
			<path class="st1" d="M225.7,41.8c-0.2-0.1-0.5-0.2-0.8-0.2c-0.4,0-0.8,0.2-1,0.5s-0.4,0.8-0.4,1.3v3.1h-2V40h2v1.2l0,0
				c0.3-0.9,0.9-1.3,1.7-1.3c0.2,0,0.4,0,0.5,0.1V41.8z"/>
			<path class="st1" d="M227.3,46.4v-1.6c0.3,0.2,0.7,0.3,1,0.4c0.3,0.1,0.6,0.1,0.9,0.1c0.4,0,0.6,0,0.8-0.1s0.3-0.2,0.3-0.4
				c0-0.1,0-0.2-0.1-0.3s-0.2-0.2-0.4-0.2c-0.1-0.1-0.3-0.1-0.5-0.2c-0.2-0.1-0.3-0.1-0.5-0.2c-0.3-0.1-0.5-0.2-0.7-0.3
				s-0.4-0.2-0.5-0.4c-0.1-0.1-0.2-0.3-0.3-0.5s-0.1-0.4-0.1-0.7c0-0.4,0.1-0.7,0.2-0.9c0.2-0.3,0.4-0.5,0.6-0.6
				c0.3-0.2,0.6-0.3,0.9-0.4c0.3-0.1,0.7-0.1,1.1-0.1c0.3,0,0.6,0,0.9,0.1c0.3,0,0.6,0.1,0.9,0.2v1.6c-0.3-0.1-0.5-0.3-0.8-0.3
				c-0.3-0.1-0.6-0.1-0.9-0.1c-0.1,0-0.3,0-0.4,0c-0.1,0-0.2,0.1-0.3,0.1s-0.2,0.1-0.2,0.2c-0.1,0.1-0.1,0.1-0.1,0.2
				c0,0.1,0,0.2,0.1,0.3s0.2,0.2,0.3,0.2c0.1,0.1,0.3,0.1,0.4,0.2c0.2,0,0.3,0.1,0.4,0.1c0.3,0.1,0.5,0.2,0.7,0.3s0.4,0.2,0.6,0.4
				c0.2,0.1,0.3,0.3,0.4,0.5c0.1,0.2,0.1,0.4,0.1,0.7c0,0.4-0.1,0.7-0.3,1s-0.4,0.5-0.7,0.7s-0.6,0.3-1,0.4
				c-0.4,0.1-0.7,0.1-1.1,0.1C228.6,46.7,227.9,46.6,227.3,46.4z"/>
			<path class="st1" d="M235.6,39c-0.3,0-0.6-0.1-0.8-0.3s-0.3-0.4-0.3-0.7s0.1-0.5,0.3-0.7s0.5-0.3,0.8-0.3s0.6,0.1,0.8,0.3
				s0.3,0.4,0.3,0.7s-0.1,0.6-0.3,0.7S236,39,235.6,39z M236.6,46.5h-2V40h2V46.5z"/>
			<path class="st1" d="M243.4,46.5c-0.3,0.2-0.7,0.2-1.3,0.2c-1.4,0-2.1-0.7-2.1-2.2v-3h-1.1V40h1.1v-1.4l2-0.6v2h1.5v1.5H242v2.6
				c0,0.7,0.3,1,0.8,1c0.2,0,0.4-0.1,0.7-0.2L243.4,46.5L243.4,46.5z"/>
			<path class="st1" d="M251.8,40l-2.6,7c-0.6,1.7-1.6,2.5-2.9,2.5c-0.5,0-0.9-0.1-1.2-0.2v-1.6c0.3,0.2,0.6,0.2,0.9,0.2
				c0.5,0,0.9-0.2,1.1-0.7l0.3-0.8l-2.6-6.5h2.2l1.2,4c0.1,0.2,0.1,0.5,0.2,0.9l0,0c0-0.2,0.1-0.5,0.2-0.9l1.2-4L251.8,40L251.8,40z
				"/>
			<path class="st1" d="M261.6,46.7c-1.1,0-1.9-0.3-2.6-0.9c-0.6-0.6-0.9-1.4-0.9-2.5s0.3-1.9,1-2.5c0.6-0.6,1.5-0.9,2.6-0.9
				s1.9,0.3,2.5,0.9c0.6,0.6,0.9,1.4,0.9,2.4c0,1.1-0.3,1.9-0.9,2.6C263.6,46.4,262.7,46.7,261.6,46.7z M261.7,41.4
				c-0.5,0-0.8,0.2-1.1,0.5c-0.3,0.3-0.4,0.8-0.4,1.4c0,1.2,0.5,1.9,1.5,1.9s1.4-0.6,1.4-1.9S262.6,41.4,261.7,41.4z"/>
			<path class="st1" d="M271.8,38.4c-0.3-0.1-0.5-0.2-0.7-0.2c-0.6,0-1,0.3-1,1V40h1.5v1.5h-1.5v5h-2v-5H267V40h1.1v-0.8
				c0-0.7,0.2-1.3,0.7-1.8s1.1-0.7,2-0.7c0.4,0,0.7,0,1,0.1L271.8,38.4L271.8,38.4z"/>
			<path class="st1" d="M286.6,46.5h-2.2l-0.6-2h-3.2l-0.6,2h-2.2l3.3-9.1h2.4L286.6,46.5z M283.3,42.9l-1-3.1
				c-0.1-0.2-0.1-0.5-0.2-0.8H282c0,0.3-0.1,0.5-0.2,0.8l-1,3.1H283.3z"/>
			<path class="st1" d="M293,41.8c-0.2-0.1-0.5-0.2-0.8-0.2c-0.4,0-0.8,0.2-1,0.5s-0.4,0.8-0.4,1.3v3.1h-2V40h2v1.2l0,0
				c0.3-0.9,0.9-1.3,1.7-1.3c0.2,0,0.4,0,0.5,0.1L293,41.8L293,41.8z"/>
			<path class="st1" d="M299,46.5c-0.3,0.2-0.7,0.2-1.3,0.2c-1.4,0-2.1-0.7-2.1-2.2v-3h-1.1V40h1.1v-1.4l2-0.6v2h1.5v1.5h-1.5v2.6
				c0,0.7,0.3,1,0.8,1c0.2,0,0.4-0.1,0.7-0.2v1.6C299.1,46.5,299,46.5,299,46.5z"/>
			<path class="st1" d="M300.8,46.4v-1.6c0.3,0.2,0.7,0.3,1,0.4c0.3,0.1,0.6,0.1,0.9,0.1c0.4,0,0.6,0,0.8-0.1
				c0.2-0.1,0.3-0.2,0.3-0.4c0-0.1,0-0.2-0.1-0.3s-0.2-0.2-0.4-0.2c-0.1-0.1-0.3-0.1-0.5-0.2c-0.2-0.1-0.3-0.1-0.5-0.2
				c-0.3-0.1-0.5-0.2-0.7-0.3s-0.4-0.2-0.5-0.4c-0.1-0.1-0.2-0.3-0.3-0.5c-0.1-0.2-0.1-0.4-0.1-0.7c0-0.4,0.1-0.7,0.2-0.9
				c0.2-0.3,0.4-0.5,0.6-0.6c0.3-0.2,0.6-0.3,0.9-0.4c0.3-0.1,0.7-0.1,1.1-0.1c0.3,0,0.6,0,0.9,0.1c0.3,0,0.6,0.1,0.9,0.2v1.6
				c-0.3-0.1-0.5-0.3-0.8-0.3c-0.3-0.1-0.6-0.1-0.9-0.1c-0.1,0-0.3,0-0.4,0s-0.2,0.1-0.3,0.1c-0.1,0-0.2,0.1-0.2,0.2
				c-0.1,0.1-0.1,0.1-0.1,0.2c0,0.1,0,0.2,0.1,0.3s0.2,0.2,0.3,0.2c0.1,0.1,0.3,0.1,0.4,0.2c0.1,0,0.3,0.1,0.4,0.1
				c0.3,0.1,0.5,0.2,0.7,0.3s0.4,0.2,0.6,0.4s0.3,0.3,0.4,0.5s0.1,0.4,0.1,0.7c0,0.4-0.1,0.7-0.3,1c-0.2,0.3-0.4,0.5-0.7,0.7
				c-0.3,0.2-0.6,0.3-1,0.4c-0.4,0.1-0.7,0.1-1.1,0.1C302.1,46.7,301.4,46.6,300.8,46.4z"/>
			<path class="st1" d="M309,46.7c-0.3,0-0.6-0.1-0.8-0.3s-0.3-0.5-0.3-0.7c0-0.3,0.1-0.6,0.3-0.7c0.2-0.2,0.5-0.3,0.8-0.3
				s0.6,0.1,0.8,0.3c0.2,0.2,0.3,0.4,0.3,0.7s-0.1,0.6-0.3,0.8C309.6,46.6,309.3,46.7,309,46.7z"/>
		</g>
		<g>
			<path class="st3" d="M363.5,13.7c-0.1-1.1-0.1-1.9-0.2-2.5c0-0.1-0.1-0.2-0.1-0.4c0-0.3,0.2-0.6,0.6-0.9c0.2-0.2,0.4-0.3,0.6-0.3
				s0.4,0,0.7,0.1c0.3,0.2,0.4,0.4,0.4,0.5c0,0,0,0,0,0.1v0.1v0.1c0,0.2-0.1,0.3-0.2,0.4c-0.1,0.3-0.1,0.7-0.1,1.3v0.4V13v0.3v0.2
				h0.2h0.4h0.4c0.8,0,1.2,0,1.4,0.1c0.4,0.2,0.6,0.5,0.6,0.9s-0.3,0.7-0.8,0.7h-0.3c-0.5,0-1.1,0-1.9,0.1c0,0.2,0,0.5,0,1v0.6v0.7
				v0.7v0.5c0.4-0.1,0.8-0.2,1.1-0.4c0.1,0,0.2,0,0.2,0c0.2,0,0.2,0,0.2,0c0.4,0.1,0.5,0.2,0.5,0.3c0,0,0,0,0,0.1v0.1
				c0,0.5-0.4,0.9-1.2,1.2c0,0-0.2,0.1-0.6,0.3l-0.3,0.1l-0.1,0.1c0,0.3,0,0.7,0,1.2v0.5c0,0.4,0,0.7,0,0.8c0,0.1,0,0.2,0,0.2
				c0,1.9-0.4,3.4-1.2,4.7c-0.5,0.7-1.1,1.3-1.9,1.8c-0.7,0.4-1.4,0.6-2.1,0.6c-0.8,0-1.1-0.3-1.1-1c0-0.5,0.3-1.1,0.9-1.9
				c0.2-0.1,0.3-0.1,0.5-0.1h0.1h0.1h0.1l0,0c0.1,0.1,0.2,0.1,0.4,0.1c0.4,0,0.8-0.2,1.3-0.5c1-0.7,1.5-2,1.5-3.9c0-0.6,0-1.2,0-1.9
				c-0.4,0.1-0.8,0.1-1.2,0.1c-0.7,0.2-1.3,0.4-1.7,0.6c-0.4,0.3-0.6,0.4-0.8,0.4h-0.1c-0.4,0-0.6-0.3-0.6-0.9c0-0.1,0-0.2,0-0.3
				c0.4-0.7,0.9-1.1,1.5-1.3c0.2,0,0.4,0,0.5,0c0.5,0,1.1-0.1,2.1-0.3l0,0l0,0h0.1l0,0h0.1l0,0v-0.2c0-0.5,0-0.8,0-1.1
				c0-0.3,0-0.6,0-0.9s0-0.8,0-1.5c-0.1,0-0.2,0-0.3,0.1c-1.5,0.1-2.5,0.3-2.8,0.3c-0.3,0.1-0.6,0.1-0.8,0.1c-0.4-0.1-0.6-0.4-0.6-1
				c0.2-0.7,0.6-1.1,1.2-1.2C360.7,13.8,361.8,13.7,363.5,13.7z M374.1,13.1c-1.3-0.2-2.2-0.2-2.6-0.2c-0.2,0-0.4,0-0.4,0
				c-0.4,0-0.6-0.2-0.6-0.5c0,0,0-0.1,0-0.2c0.3-0.8,0.8-1.2,1.4-1.2c0.2,0,0.4,0,0.7,0.1c0.9,0,1.9,0,2.9,0.1
				c1.2,0,2.3,0.1,3.3,0.2c0.2,0,0.3,0,0.4,0c0.6,0,1,0.2,1.3,0.6c0.4,0.5,0.6,1.1,0.6,1.7c0,0.8-0.3,2-1,3.5
				c-0.5,1.1-1.2,2.2-2,3.3c-0.2,0.3-0.5,0.4-0.8,0.4c-0.2,0-0.4-0.2-0.6-0.5c-0.2-0.4-0.3-0.8-0.3-1.3c0-0.1,0-0.2,0-0.3
				c0,0,0-0.1,0.1-0.1c0.1-0.1,0.1-0.2,0.2-0.2c0.6-0.4,1.2-1,1.6-1.8c0.7-1.3,1.1-2.3,1.1-2.9c0-0.4-0.4-0.6-1.2-0.7
				c-0.6-0.1-1.4-0.1-2.4-0.1c-0.1,0.5-0.5,1.3-1.1,2.4c-0.7,1.2-1.4,2.2-2.2,3c-1,1-2,1.8-3,2.3c-0.6,0.3-1.1,0.5-1.5,0.5
				c-0.5,0-0.7-0.4-0.7-1.1c0.3-1.2,0.8-1.8,1.5-1.8h0.1c0.1,0,0.1,0,0.1,0h0.1c0.4-0.1,0.9-0.4,1.6-0.8c1.9-1.2,3-2.6,3.3-4.2
				c0-0.1,0-0.1,0-0.2C374.1,13.2,374.1,13.2,374.1,13.1C374.1,13.2,374.1,13.2,374.1,13.1C374.1,13.2,374.1,13.2,374.1,13.1z
				 M378.2,29.6H378h-0.4h-0.3h-0.5h-0.5c-0.8,0-1.6,0-2.2,0.1c-0.4,0-0.6,0-0.6,0c-0.2,0-0.4,0-0.5,0.1c-0.3,0.1-0.7,0.1-1.1,0.1
				c-0.7,0.3-1.1,0.4-1.3,0.4c-0.2,0-0.4-0.1-0.6-0.2c-0.3-0.3-0.4-0.7-0.5-1.2c0.1-0.4,0.1-0.7,0.2-0.9c0.2-0.5,0.3-1.4,0.3-2.8
				c0-0.4,0-0.8,0-1.4c-0.1-0.5-0.2-0.8-0.2-1c0-0.3,0.2-0.6,0.5-0.9c0.2-0.1,0.4-0.1,0.6-0.1s0.4,0.1,0.6,0.2
				c0.1,0.1,0.5,0.1,1.1,0.1h0.6h0.5h0.5c0.2,0,0.4,0,0.7,0c0.8-0.1,1.8-0.1,3.1-0.1c0.5,0,1-0.1,1.4-0.3c0.3,0,0.5,0,0.7,0.1
				c0.4,0.5,0.5,1,0.5,1.4c0,0.2,0,0.4-0.1,0.6c-0.2,0.5-0.4,1.5-0.4,2.9c0,0.4,0,0.8,0,1.2c0,0.2,0.1,0.4,0.1,0.5s0.1,0.3,0.1,0.5
				c0,0.4-0.1,0.6-0.2,0.7c-0.1,0.2-0.3,0.3-0.5,0.3h-0.1h-0.1h-0.1h-0.1h-0.1C378.9,29.8,378.6,29.7,378.2,29.6z M378,27.9
				c0.1,0,0.1,0,0.1,0c0.3,0,0.4-0.3,0.4-1v-0.5v-0.8c0-0.9,0-1.4,0-1.6c0-0.4-0.2-0.6-0.6-0.6h-0.1c-0.3,0-0.8,0-1.5,0.1
				c-0.9,0-1.4,0.1-1.6,0.1c-0.7,0.1-1.5,0.1-2.5,0.1c-0.2,0.1-0.4,0.3-0.5,0.6c0,1,0,2.1-0.1,3.3c0,0,0,0,0,0.1
				c0,0.3,0.1,0.4,0.4,0.4c0,0,0.1,0,0.2,0s0.3,0,0.6,0c0.2,0,0.7,0,1.4,0C375,27.9,376.3,27.9,378,27.9z"/>
			<path class="st3" d="M398.3,19.4V19v-0.6v-0.6v-0.6v-0.6v-0.4c-2.4,0.1-4.2,0.2-5.1,0.3c-0.3,0.6-0.8,0.8-1.5,0.8
				c-0.5,0-0.8-0.4-0.9-1.3c0.1-0.4,0.4-0.8,0.7-1.1c0.3-0.5,0.5-1.1,0.5-1.8s0.3-1.2,0.9-1.4c0.7,0,1,0.3,1,0.7s-0.2,1-0.6,1.8
				c0,0.2,0.1,0.3,0.4,0.3c0.7,0,2.2-0.1,4.6-0.3V14v-0.3v-0.3v-0.3v-0.3v-0.2c0-0.1,0-0.2-0.1-0.3c0-0.2,0-0.3-0.1-0.4
				c0-0.1,0-0.2,0-0.2c0-0.1,0-0.1-0.1-0.3c-0.1-0.3-0.1-0.6-0.1-0.9c0.1-0.4,0.5-0.6,1-0.6s0.8,0.2,1.1,0.5
				c0.1,0.1,0.1,0.2,0.1,0.4c0,0.1,0,0.2-0.1,0.3c0,0.2,0,0.5,0,0.9c0,0.7,0,1.4-0.1,2.1h0.5l0.9-0.1l0.9-0.1l0.9-0.1l1-0.1h0.6
				c0.7,0.2,1.1,0.7,1.1,1.3c0,0.3-0.1,0.5-0.4,0.6c-0.2,0.1-0.6,0.1-1.3,0.1c-1.1,0-2.5,0.1-4.2,0.2c0,0.1,0,0.3,0,0.5
				c0,0.3,0,0.5,0,0.8c0,0.2,0,0.5,0,0.8v0.4c0,0.2,0,0.5,0,0.7c0.8-0.1,1.6-0.1,2.3-0.1h0.8h0.8h0.7h0.7c0.8,0,1.3,0.4,1.3,1.1
				c0,0.4-0.2,0.7-0.6,0.7c0,0,0,0-0.1,0c-0.2,0-0.3,0-0.4,0s-0.3,0-0.5,0c-0.1,0-0.4,0-1.1,0c-0.9,0-2.1,0.1-3.8,0.1v0.5v0.7
				c0,0.6,0,1.3,0,2v0.4c1.3,0,2.5,0.1,3.8,0.2c1.9,0.2,3.3,0.4,4.2,0.6c0.6,0.1,1,0.2,1.2,0.2c1.1,0,2.2-0.2,3.2-0.5
				c0.1,0,0.2,0,0.2,0c0.2,0,0.3,0.1,0.3,0.4c0,0.1,0,0.1,0,0.1c0,0.4-0.6,1.2-2,2.4c-0.4,0.6-0.9,0.9-1.3,0.9
				c-0.3,0-0.9-0.3-1.8-0.8c-1.1-0.7-2.5-1.1-4-1.4c-0.8-0.1-2.4-0.2-4.7-0.2c-2.5,0-4.6,0.3-6.6,0.9c-1.4,0.4-2.3,0.8-2.8,1.1
				l-0.3,0.2l-0.3,0.1c-0.8,0.5-1.3,0.7-1.5,0.7c-0.4,0-0.6-0.3-0.6-0.9c0-1.2,0.4-2.1,1.3-2.7c0.9,0,2.1-0.2,3.6-0.6
				c1.9-0.5,4-0.8,6.2-0.9v-0.5c0-1,0-2,0-3l0,0l0,0l0,0l0,0H398c-1.1,0-2.5,0.1-4.2,0.3c-0.9,0.1-1.5,0.2-1.8,0.2h-0.1
				c-0.4,0-0.7-0.3-0.8-0.9c0-0.4,0.2-0.7,0.4-0.8c0.3-0.2,0.9-0.4,2-0.4c0.1,0,0.5,0,1.2-0.1c0.3,0,0.7,0,1-0.1
				c0.6,0,0.9,0,1.1-0.1c0.4,0,0.6,0,0.7,0h0.2h0.1h0.1h0.4L398.3,19.4L398.3,19.4z"/>
			<path class="st3" d="M423.6,14.7c0.2,0,0.4,0,0.5,0c0.4,0,0.5,0.1,0.5,0.3c0,0,0,0,0,0.1c0,0.6-0.4,1-1.1,1.3
				c-1,0.3-1.8,0.6-2.6,0.7c-0.4,0.1-0.7,0.2-1,0.3c-0.2,0.2-0.4,0.3-0.5,0.3c0,0-0.1,0-0.1-0.1c-0.1,0-0.1,0-0.2,0
				c-0.3,0-0.4-0.3-0.4-0.8c0-0.1,0-0.2,0-0.3c0.4-0.9,0.9-1.3,1.6-1.3c0.3,0,0.6,0,1-0.1c0.3,0,0.7-0.1,1-0.1
				C422.5,15,423,14.9,423.6,14.7z M423.5,10.2h0.1h0.2h0.2h0.2h0.2h0.1c0.2,0.2,0.4,0.5,0.4,0.8c0,0.4-0.3,0.7-0.7,0.7
				c0,0,0,0-0.1,0c-0.2,0-0.2,0-0.3,0h-0.2c-0.5,0-1,0-1.3,0.1c-0.4,0-0.8,0.1-1.4,0.1h-0.3h-0.3h-0.2c-0.2,0.1-0.3,0.1-0.4,0.1
				c-0.4,0-0.7-0.2-0.7-0.6c0.1-0.4,0.2-0.7,0.5-1c0.4-0.1,0.8-0.1,1.4-0.1h0.6h0.6h0.5h0.5h0.4L423.5,10.2L423.5,10.2z M424.4,28.5
				c0.2,0,0.4,0,0.8,0.1c0.4,0.3,0.6,0.7,0.6,1.1c0,0.5-0.3,1-0.8,1.4c-0.5,0.3-1.1,0.6-1.8,0.7c-0.8,0.3-1.4,0.4-2,0.4
				c-0.2,0-0.4-0.1-0.6-0.3c-0.1-0.1-0.2-0.2-0.2-0.5s0.2-0.5,0.5-0.5c0.7-0.2,1.3-0.5,1.7-0.8c0.5-0.2,0.8-0.6,0.9-1
				c0-0.2,0.2-0.4,0.3-0.6C424.1,28.5,424.3,28.5,424.4,28.5z M430.3,18.6c1.5,0,2.5,0,2.9-0.1c0.2,0,0.4,0,0.6,0h0.2h0.2h0.1
				c0.2,0,0.3,0.1,0.5,0.2c0.3,0.3,0.4,0.6,0.4,0.9c0,0.1,0,0.2-0.1,0.5v0.1v0.1v0.1c-0.1,0.2-0.2,0.5-0.2,1.1
				c-0.1,0.7-0.1,1.9-0.2,3.6c0,0.3,0,0.5,0,0.5c0,0.1,0,0.2,0,0.3c0,0.3,0,0.7,0.1,1V27c0,0.2,0,0.3-0.1,0.4
				c-0.2,0.5-0.4,0.7-0.8,0.7c0,0-0.1,0-0.2-0.1h-0.1h-0.1h-0.1h-0.1H433l0,0c-0.1-0.1-0.3-0.1-0.6-0.1c0,0-0.2,0-0.5-0.1
				c-0.4-0.1-0.9-0.1-1.6-0.1c-3.4,0-5.5,0.1-6.1,0.2c-0.2,0-0.4,0.1-0.6,0.1s-0.4,0.1-0.6,0.2s-0.3,0.1-0.4,0.1
				c-0.2,0-0.4-0.1-0.5-0.3c-0.2-0.2-0.2-0.4-0.2-0.7s0-0.5,0.1-0.7c0.2-0.5,0.3-1.2,0.3-2.1v-0.3c0-1.2-0.1-2.1-0.1-2.6
				c-0.1-0.5-0.2-0.9-0.4-1.2c-0.1-0.2-0.2-0.4-0.2-0.6c0,0,0-0.1,0-0.2c0.2-0.5,0.4-0.8,0.7-0.9c0.1,0,0.2-0.1,0.3-0.1
				s0.2,0,0.4,0.1h0.1h0.2h0.2h0.3h0.2c0.8,0,1.6,0,2.6-0.1c0.3,0,0.7,0,1.2,0h0.8h0.6h0.6C429.8,18.6,430.3,18.6,430.3,18.6z
				 M423.8,21.3c1,0,2.3,0,3.8-0.1c1.2,0,2.1,0,2.6-0.1c0.5,0,0.8-0.1,1-0.1h0.4h0.4h0.4h0.4h0.2l0,0l0,0l0,0l0,0l0,0l0,0
				c0-0.1,0-0.2,0-0.3c0-0.3-0.1-0.4-0.3-0.5c0,0-0.1,0-0.3-0.1c-0.4-0.1-0.9-0.1-1.7-0.1c-2.6,0-4.8,0.1-6.6,0.3
				c-0.2,0.1-0.3,0.3-0.3,0.5c0,0,0,0.1,0,0.2l0,0v0.1V21.3C423.8,21.2,423.8,21.2,423.8,21.3z M433,22.2h-0.6l-1,0.1l-1,0.1
				l-0.9,0.1l-0.9,0.1H428h-0.6l-0.8,0.1c-1.1,0.1-1.9,0.1-2.6,0.2l0,0V23l0,0v0.1v0.1c0,0.2,0,0.4,0,0.5c1,0,1.9,0,2.6-0.1
				c0.6,0,1.1-0.1,1.4-0.1h0.6h0.6h0.8h0.8h0.3h0.4h0.4h0.4h0.4h0.3c0-0.1,0-0.4,0-0.7C433,22.6,433,22.4,433,22.2z M432.9,24.8
				c-2.9,0-5.8,0.2-8.9,0.4v0.1v0.1v0.1v0.1v0.1c0,0.4,0.1,0.6,0.2,0.6h0.1c0.1,0,0.3,0,0.5,0c0.1,0,0.3,0,0.8,0
				c0.8,0,1.8-0.1,2.9-0.1h0.9h0.9h0.7h0.7c0.5,0,0.8,0,0.9-0.1c0.2-0.1,0.2-0.3,0.2-0.7v-0.2V25L432.9,24.8L432.9,24.8z
				 M430.9,14.9c0.4,0,0.9,0.2,1.5,0.4c0.8,0.2,1.5,0.4,2.3,0.7c0.3,0.1,0.8,0.3,1.4,0.4c0.9,0.2,1.5,0.3,1.8,0.3l1.4-0.1
				c0.1,0,0.2,0,0.5,0.1c0.1,0,0.2,0,0.2,0c0.6,0,0.9-0.1,0.9-0.1c0.1,0,0.2-0.1,0.2-0.1h0.1c0.2,0,0.3,0.1,0.3,0.2l0,0v0.1
				c0,0.4-0.5,1-1.4,2c-0.5,0.5-1,0.7-1.5,0.8c-0.1,0-0.2,0-0.3,0c-0.5,0-1-0.1-1.4-0.4c-0.6-0.4-1.6-1-3-1.8
				c-1.7-0.9-2.9-1.5-3.8-1.6c0,0.1,0,0.1,0,0.2c-0.9,1.1-2,1.6-3.2,1.6c-0.6,0-1-0.3-1-1c0-0.5,0.2-0.8,0.7-0.8
				c0.8,0,1.5-0.2,2.1-0.6c0.6-0.3,0.8-0.8,0.8-1.3c0-0.1,0-0.2,0-0.3s0-0.2,0-0.3c0.1-0.4,0.4-0.7,0.9-0.9c0.5,0.2,0.8,0.5,0.8,0.9
				C431.2,14,431.1,14.4,430.9,14.9z M429.6,7.7c1.1,0.1,1.7,0.5,1.7,1.1c0,0.4-0.2,0.9-0.5,1.7c0,0.1,0.1,0.1,0.2,0.1l0,0
				c0.1,0.1,0.2,0.1,0.3,0.1c0.1,0,0.4,0,0.9,0.1c0.7,0,1.4,0.1,2.3,0.1c0.6,0,1,0.1,1.3,0.3c0.6,0.3,0.9,0.7,0.9,1.2
				c0,0.6-0.2,0.9-0.7,0.9c-0.4,0.1-0.8,0.2-1.3,0.4c-0.2,0.2-0.5,0.3-0.8,0.4c-0.1,0-0.2,0.2-0.3,0.3c0,0-0.1,0.1-0.2,0.2l-0.1,0.1
				l0,0h-0.1h-0.1H433h-0.1l0,0c0-0.1,0-0.2,0-0.2v-0.1c0-0.2,0.2-0.5,0.5-0.9c0.2-0.3,0.4-0.7,0.4-1c0-0.2-0.5-0.3-1.5-0.3
				s-1.7-0.1-2.2-0.3c-0.2,0.4-0.6,0.6-1.2,0.8c-0.4,0.2-0.8,0.4-1.2,0.4c-0.1,0-0.2,0-0.4,0c-0.1,0-0.2,0-0.3,0
				c-0.5,0-0.8-0.2-0.8-0.6c0-0.2,0.1-0.3,0.4-0.3c0.8-0.2,1.3-0.6,1.7-1c0.6-0.6,0.8-1.1,0.8-1.6c0-0.3,0-0.6-0.1-0.9
				c0-0.1,0-0.2,0-0.4C429,8,429.2,7.9,429.6,7.7z M431.6,28.3c0.4,0,0.8,0.3,1.4,0.8c1.2,0.6,2.3,1,3.1,1c0.3,0,0.4,0.1,0.4,0.3
				c0,0,0,0.1-0.1,0.2s-0.2,0.2-0.3,0.3c-0.1,0.1-0.2,0.2-0.3,0.3c-0.7,0.6-1.3,0.9-1.7,0.9c-0.1,0-0.1,0-0.2,0
				c-0.3,0-0.5-0.1-0.7-0.2s-0.6-0.5-1-1.1c-0.5-0.6-0.8-1.1-1-1.7C431.1,28.7,431.3,28.4,431.6,28.3z"/>
			<path class="st3" d="M454,13.9c0.5,0,0.8,0,1.1,0.1c0.2,0.2,0.4,0.4,0.5,0.8c0,0.3-0.2,0.5-0.4,0.6c-0.2,0.1-0.5,0.1-1.1,0.1
				c-1.5,0-3,0.1-4.5,0.2c-1.4,0.1-2.2,0.3-2.6,0.4c-0.2,0.1-0.5,0.1-0.6,0.1c-0.4,0-0.7-0.3-0.8-0.8c0.1-0.3,0.2-0.6,0.5-0.8
				C447,14.3,449.6,14,454,13.9z M452.8,29.5h-0.1h-0.2h-0.2H452h-0.3c-0.6,0-1.1,0-1.5,0.1c-0.3,0-0.6,0.1-0.7,0.1
				c-0.2,0-0.4,0.1-0.6,0.1s-0.4,0.1-0.6,0.1c-0.1,0-0.2,0.1-0.3,0.1c-0.2,0-0.4-0.1-0.6-0.3c-0.2-0.2-0.2-0.5-0.2-0.7
				c0-0.3,0-0.5,0.1-0.6c0.2-0.5,0.3-1.1,0.3-1.8c0-0.2,0-0.5,0-0.8c-0.1-0.4-0.1-0.7-0.1-0.9c0-0.1,0-0.1,0-0.2
				c0.2-0.4,0.4-0.6,0.8-0.6c0.1,0,0.3,0,0.4,0.1h0.1h0.1h0.1h0.1h0.1h0.1c0.2,0,0.4,0.1,0.6,0.1s0.5,0,0.9-0.1c0,0,0.2,0,0.5,0
				c0.4,0,0.7,0,1.1-0.1c0.4,0,0.6-0.1,0.8-0.1c0.2,0,0.4-0.1,0.6-0.1s0.4,0,0.6,0.1c0.3,0.4,0.4,0.7,0.4,1.1c0,0.1,0,0.2-0.1,0.4
				c-0.2,0.3-0.3,0.9-0.3,1.8v0.2c0,0.2,0,0.3,0,0.4c0,0,0,0.1,0,0.2s0,0.2,0.1,0.4l0,0c0,0,0,0.1,0,0.2v0.1c0,0.4-0.2,0.7-0.6,0.7
				c-0.1,0-0.1,0.1-0.2,0.1s-0.1,0-0.2-0.1C453.3,29.5,453,29.5,452.8,29.5z M453.8,17.3c0.5,0,0.7,0.2,0.7,0.5
				c0,0.5-0.4,0.8-1.1,0.8c-0.6,0-1.8,0.1-3.4,0.4c-0.7,0.1-1.1,0.2-1.5,0.3c-0.2,0.1-0.5,0.1-0.6,0.1s-0.2,0.1-0.2,0.1
				c-0.1,0-0.3-0.1-0.4-0.2c-0.1-0.2-0.1-0.4-0.1-0.6c0-0.1,0-0.1,0-0.1c0-0.2,0.1-0.5,0.3-0.7c0.3-0.1,0.6-0.2,0.9-0.2
				c0.1,0,0.5,0,1.1-0.1C450.1,17.5,451.5,17.4,453.8,17.3z M453.4,20.5c0.5,0,0.7,0.2,0.7,0.5c0,0.5-0.3,0.8-1,0.8
				c-1.5,0-2.5,0.1-3.1,0.3c-0.1,0-0.3,0.1-0.5,0.1s-0.4,0.1-0.6,0.2c-0.1,0-0.2,0.1-0.3,0.1c-0.2,0.1-0.4,0.1-0.6,0.1
				c-0.1,0-0.1,0.1-0.2,0.1s-0.3-0.1-0.4-0.2c-0.1-0.2-0.1-0.4-0.1-0.6c0-0.3,0.1-0.5,0.3-0.8c0.3-0.1,0.6-0.1,0.9-0.1
				c0.1,0,0.4,0,0.9-0.1C450.1,20.7,451.4,20.6,453.4,20.5z M453.2,10.4c0.5,0,0.7,0.2,0.7,0.4c0,0.6-0.3,0.9-1,0.9
				c-0.4,0-1.2,0.1-2.4,0.3c-0.9,0.1-1.5,0.2-1.8,0.3c-0.2,0.1-0.4,0.1-0.5,0.1s-0.1,0.1-0.2,0.1s-0.2-0.1-0.4-0.2
				c-0.1-0.2-0.1-0.4-0.1-0.6c0-0.3,0.1-0.6,0.3-0.9c0.3-0.1,0.6-0.1,0.8-0.1c0.1,0,0.4,0,0.9-0.1C450,10.6,451.2,10.5,453.2,10.4z
				 M452.6,28c0.1,0,0.2,0,0.2,0c0.2,0,0.3-0.3,0.3-0.9v-0.5v-0.5c0-0.4,0-0.6-0.1-0.6c-0.1-0.1-0.2-0.1-0.5-0.1h-0.1
				c-0.2,0-0.5,0-1,0.1c-0.4,0-0.6,0.1-0.7,0.1h-0.3H450h-0.3h-0.3h-0.2c-0.1,0.1-0.2,0.2-0.3,0.4c0,0.6,0,1.2-0.1,1.7
				c0,0,0,0,0,0.1c0,0.3,0.1,0.4,0.3,0.4c0,0,0.1,0,0.2,0C449.8,28.1,450.9,28,452.6,28z M459.2,19.5v-0.4v-0.6v-0.6v-0.8
				c0-1-0.1-1.7-0.2-2c-0.1-0.2-0.1-0.5-0.1-0.8c0.1-0.4,0.4-0.5,0.9-0.5c0.4,0,0.7,0.1,1,0.4c0.1,0.1,0.2,0.3,0.2,0.5
				c0,0,0,0.1,0,0.2V15c0,0.2,0,0.3-0.1,0.5c-0.1,0.3-0.1,1-0.1,2v0.6v0.5V19v0.3h0.2h0.4h0.4h0.5h0.5h0.3h0.3h0.2h0.2h0.1
				c0.2,0.2,0.4,0.5,0.5,0.8c-0.1,0.5-0.5,0.8-1.2,0.8h-0.4h-0.6h-0.5h-0.5h-0.3v0.9v1.4v1.4v1.8c0,1.6,0,2.5-0.1,2.7
				c-0.1,0.5-0.4,0.7-0.7,0.7c-0.3,0-0.5-0.2-0.6-0.6c-0.2-0.4-0.3-0.9-0.3-1.4c0-0.2,0-0.4,0-0.6v-2.6v-1.3V22v-0.8
				c-0.7,0.1-1.3,0.1-1.8,0.2c-0.3,0-0.5,0.1-0.7,0.1c-0.2,0.1-0.3,0.2-0.5,0.2c0,0-0.1,0-0.2-0.1c-0.5,0-0.7-0.2-0.8-0.6
				c0.1-0.4,0.2-0.7,0.5-1c0.4-0.1,0.8-0.1,1.2-0.1c0.1,0,0.4,0,0.8-0.1l0.4-0.1l0.4-0.1l0.4-0.1H459.2z M466,10.9
				c0.1,0,0.2,0,0.2,0c0.3,0,0.5,0.2,0.7,0.5c0.1,0.2,0.1,0.5,0.1,0.7c0,0.5-0.3,0.8-0.8,1c-0.3,0.8-0.5,2-0.5,3.6
				c0,2.8,0.4,5.1,1.2,6.9c0.6,1.3,1.5,2,2.7,2c0.5,0,1-0.1,1.5-0.3c0.1,0.1,0.2,0.2,0.2,0.3c0,0.1,0,0.2-0.1,0.3
				c-0.1,0.4-0.4,0.8-0.9,1.4c-0.7,0.7-1.2,1.1-1.6,1.1c-0.1,0-0.6-0.1-1.2-0.4c-1.2-0.5-2-1.8-2.6-4c-0.5-1.9-0.7-3.9-0.7-6
				c0-1.3,0.1-2.9,0.2-4.5v-0.1c0-0.3-0.2-0.4-0.7-0.4h-0.4c-0.8,0-1.8,0.2-3,0.3l-0.5,0.1c-0.6,0.1-1.3,0.2-2,0.3
				c-0.4,0-0.7,0.1-0.8,0.1c-0.1,0-0.1,0-0.2,0s-0.2-0.1-0.3-0.3c0-0.7,0.2-1.2,0.5-1.6c0.6-0.1,1.1-0.1,1.7-0.2l0.9-0.1
				c1.2-0.1,2.1-0.2,2.5-0.2C463.7,11.4,464.9,11.2,466,10.9z"/>
			<path class="st3" d="M475.8,24.6c0.4,0,0.7,0.1,1,0.3c0.4,0.3,0.5,0.6,0.5,0.9c0,0.7-0.3,1.5-1,2.4c-0.4,0.5-0.9,0.8-1.4,0.8
				c-0.2,0-0.3-0.1-0.3-0.4c0,0,0-0.1,0-0.2c0.3-0.9,0.5-1.8,0.6-2.6C475.3,25.2,475.5,24.7,475.8,24.6z M478.3,17.2
				c-0.4-0.3-1-0.5-1.6-0.5s-1-0.5-1-1.6c0-0.6,0.1-1,0.3-1.3c0.1-0.2,0.4-0.4,0.9-0.7c1-0.7,1.7-1.8,2.1-3.4
				c0.2-0.4,0.4-0.5,0.7-0.5c0.4,0,0.7,0,1,0.1c0.4,0.3,0.6,0.7,0.6,1c0,0.4-0.1,0.6-0.4,0.6c-0.2,0.3-0.6,0.8-1.1,1.3
				c-0.7,0.8-1.4,1.5-1.9,2.1c-0.1,0.2-0.1,0.4-0.1,0.5c0,0.3,0.2,0.4,0.6,0.5c0.4,0.3,0.7,0.5,1.1,0.9c0.3-0.3,0.6-0.6,1-0.8
				c0.6-0.4,0.9-0.8,0.9-1.2c0-0.2-0.1-0.5-0.2-0.7s-0.2-0.4-0.2-0.6c0-0.2,0.1-0.3,0.3-0.3c0.4,0,1,0.3,1.9,1
				c0.6,0.5,0.9,0.8,0.9,1.1v0.1c0,0.5-0.4,0.8-1,0.8c-0.4,0-1.1,0.5-2.1,1.3c-1.8,1.5-2.6,2.6-2.6,3.2c0,0.2,0.2,0.3,0.7,0.3
				c0,0,0.2,0,0.4,0c0.8,0,1.4-0.1,1.8-0.3c0.2,0,0.3-0.1,0.3-0.3c0,0,0,0,0-0.1s0-0.1,0-0.2c0-0.2-0.1-0.4-0.2-0.6
				c-0.1-0.3-0.1-0.6-0.1-0.8c0-0.4,0.1-0.6,0.3-0.6c0.4,0,0.8,0.3,1.3,1s0.8,1.3,0.8,2v0.1c0,0.2-0.1,0.4-0.3,0.7
				c-0.2,0.2-0.5,0.3-0.7,0.3c-0.1,0-0.2,0-0.3-0.1c-0.1,0-0.2,0-0.3,0c-0.2,0-0.4,0.1-0.7,0.2c-0.2,0.1-0.6,0.2-1.2,0.3
				c-0.5,0.1-1,0.1-1.3,0.1h-0.5H478h-0.3h-0.3h-0.2c-0.1,0-0.2,0.1-0.2,0.1c-0.1,0-0.2,0.1-0.3,0.1l-0.1,0.1
				c-0.1,0-0.1,0.1-0.2,0.1c-0.3,0.2-0.6,0.3-0.8,0.3c-0.4,0-0.5-0.4-0.5-1.1c0-0.5,0.2-1,0.5-1.4c0.5,0,1.2-0.7,2-2
				c0.2-0.3,0.5-0.7,1-1.2L478.3,17.2z M479.5,23.2c0.8,0,1.2,0.4,1.2,1.2c0,0.3-0.1,0.6-0.3,0.9c0,0.1,0,0.3,0,0.5
				c0,0.4-0.1,0.7-0.1,0.9c0,0.2,0,0.5-0.1,1c0,0.4,0,0.8,0,1s0,0.4,0,0.5c0,0.2,0,0.3,0,0.5c0,0.5-0.1,0.8-0.4,0.8h-0.1
				c-0.3,0-0.5-0.3-0.7-0.9c0-0.9-0.2-1.7-0.3-2.5c-0.1-0.7-0.2-1.4-0.2-2.2C478.7,24,479,23.5,479.5,23.2z M482.5,24.3
				c0.4,0,0.7,0.3,0.9,0.8c0.1,0.3,0.3,0.6,0.5,0.9c0.2,0.1,0.3,0.3,0.4,0.5c0,0.4-0.3,0.6-0.9,0.6c-0.4,0-0.8-0.1-1.1-0.3
				c-0.4-0.2-0.6-0.5-0.6-1C481.6,25,481.9,24.5,482.5,24.3z M496.7,18.2h-0.3H496h-0.4H495c-0.4,0-0.9,0-1.4,0.1
				c-0.7,0.1-1.3,0.1-1.7,0.1c-0.6,0-1.3,0.1-1.9,0.3c-0.7,0.1-1.4,0.3-2.3,0.4v0.1v0.2v0.2v0.3c0,0,0,0.1,0,0.3
				c0,2.8-0.1,4.9-0.5,6.3c-0.7,2.8-1.7,4.3-3.1,4.3c-0.4,0-0.8-0.2-1-0.5s-0.2-0.5-0.2-0.9c0-0.6,0.3-1,0.9-1.3
				c0.9-0.5,1.5-1.7,1.9-3.5c0.2-1.2,0.3-2.9,0.3-5.2c0-2.8-0.2-5-0.7-6.7c0.1-0.6,0.4-1.1,1-1.3c0.4,0,0.7,0.2,0.9,0.5l0,0h0.1h0.1
				h0.1h0.1l0,0c1.5-0.4,2.6-0.6,3.5-0.7c1-0.1,2.1-0.1,3.3-0.1c0.4,0,0.8,0,1.2-0.1c0.2-0.1,0.3-0.1,0.5-0.1c0,0,0.1,0,0.2-0.1
				c0.1,0,0.3-0.1,0.5-0.2c0.5,0,0.9,0.2,1.3,0.5c0.4,0.5,0.6,1,0.6,1.4c0,0.2,0,0.5-0.1,0.8c-0.1,0.5-0.2,1.3-0.2,2.4
				c0,3.4,0.2,7.9,0.7,13.5c0.1,0.3,0.1,0.5,0.1,0.7c0,0.4-0.1,0.8-0.4,1.1c-0.2,0.2-0.3,0.3-0.4,0.3c0,0-0.1,0-0.2,0
				c-0.5,0-0.8-0.7-1-2C497,27.4,496.8,23.7,496.7,18.2z M487.5,13.4c0.1,1,0.1,2.2,0.2,3.7h0.1h0.2h0.1h0.1h0.1c0,0,0.2,0,0.3,0
				c0.1,0,0.1,0,0.3,0c0.6,0,1.5-0.1,2.7-0.3c1.2-0.2,2.6-0.3,4.1-0.3c0.4,0,0.7,0,1,0.1c0-0.6,0-0.9,0-1c0-0.4,0-0.6,0-0.6
				c0-0.3,0-0.4,0-0.5v-0.6v-0.1v-0.1v-0.5c0-0.1-0.1-0.3-0.2-0.4c-0.1-0.1-0.9-0.2-2.4-0.2h-0.7h-0.8c-1.4,0.1-2.3,0.1-2.6,0.2
				c-0.1,0-0.5,0.1-1.4,0.3C488.1,13.3,487.7,13.4,487.5,13.4z M493.1,21c0.5-0.1,1-0.1,1.4-0.1c0.6,0,1,0.1,1.1,0.2
				c0.2,0.1,0.3,0.3,0.3,0.7c0,0.4-0.2,0.6-0.6,0.6h-0.1c-0.1,0-0.2,0-0.3,0h-0.3c-1.2,0-2.2,0.1-2.8,0.2c-0.4,0.1-0.8,0.1-1.2,0.1
				c0.1,0.6,0.2,1.4,0.2,2.4l0,0h0.1h0.1h0.1h0.1c0.1,0,0.4,0,0.8-0.1c0.7-0.1,1.5-0.1,2.3-0.1c0.5,0,0.9,0.1,1.2,0.2
				c0.3,0.1,0.4,0.4,0.4,0.8c0,0.3-0.2,0.5-0.6,0.6l-0.5-0.1c0,0-0.1,0-0.2,0c0,0-0.2,0-0.5,0c-0.2,0-0.8,0-1.6,0.1
				c-0.8,0-1.5,0.1-2.1,0.1l-0.1,0.1c-0.1,0.1-0.2,0.1-0.4,0.2c-0.1,0-0.2,0.1-0.2,0.1l0,0h-0.1h-0.1h-0.1h-0.1
				c-0.3,0-0.5-0.2-0.5-0.6c0-0.1,0-0.1,0.1-0.1c0-0.1,0-0.1,0.1-0.1c0.2-0.3,0.2-0.7,0.2-1.2c0,0,0-0.1,0-0.3
				c0-0.8-0.1-1.4-0.3-1.7l0,0l0,0l0,0l0,0l0,0c-0.4,0-0.7-0.2-0.7-0.6c0.1-0.4,0.2-0.7,0.4-0.8c0.2-0.2,0.7-0.3,1.4-0.3
				c0.5-0.1,1-0.1,1.4-0.1l0,0V21l0,0v-0.1v-0.1l0,0c0-0.1,0-0.2,0-0.3c0-0.2-0.1-0.4-0.2-0.4c-0.1-0.2-0.2-0.4-0.2-0.6
				s0.2-0.4,0.5-0.6c0.2-0.1,0.4-0.1,0.7-0.1c0.8,0.2,1.2,0.5,1.2,0.9c0,0.2-0.1,0.4-0.3,0.7c0,0,0,0.1,0,0.2v0.1v0.1
				C493.1,20.9,493.1,20.9,493.1,21z M489.6,13.9c0.2,0,0.3,0,0.4,0.1c0.3,0.7,0.6,1.2,0.9,1.4c0.1,0,0.2,0.1,0.2,0.4
				s-0.3,0.5-0.8,0.5c-0.1,0-0.2,0.1-0.3,0.1c-0.1,0-0.2,0-0.3-0.1c-0.2-0.1-0.3-0.1-0.4-0.1c-0.2-0.1-0.3-0.3-0.4-0.5
				s-0.1-0.6-0.1-1C489,14.3,489.2,14,489.6,13.9z M494.9,13.6c0.5,0.3,0.8,0.6,0.8,1.1c0,0.3-0.2,0.5-0.5,0.7
				c-0.8,0.6-1.4,0.9-1.8,0.9c-0.3,0-0.5-0.2-0.5-0.6c0-0.3,0.3-0.8,1-1.4c0.2-0.1,0.4-0.4,0.5-0.6
				C494.6,13.6,494.8,13.6,494.9,13.6z"/>
		</g>
	</g>
</g>
</svg>
